<?xml version="1.0" standalone="no"?>
<!DOCTYPE svg PUBLIC "-//W3C//DTD SVG 20010904//EN"
 "http://www.w3.org/TR/2001/REC-SVG-20010904/DTD/svg10.dtd">
<svg version="1.0" xmlns="http://www.w3.org/2000/svg"
 width="700.000000pt" height="700.000000pt" viewBox="0 0 700.000000 700.000000"
 preserveAspectRatio="xMidYMid meet">
<metadata>
Created by potrace 1.11, written by Peter Selinger 2001-2013
</metadata>
<g transform="translate(0.000000,700.000000) scale(0.100000,-0.100000)"
fill="#000000" stroke="none">
<path d="M3155 6968 c-35 -33 -36 -37 -100 -326 -36 -162 -74 -310 -84 -330
-36 -70 -77 -95 -221 -136 -208 -59 -385 -132 -612 -254 -126 -67 -179 -81
-243 -63 -22 6 -157 85 -299 176 -275 174 -294 183 -354 151 -32 -18 -415
-402 -431 -433 -28 -54 -17 -78 154 -348 91 -143 170 -278 176 -300 18 -64 4
-118 -63 -243 -102 -191 -157 -317 -215 -497 -80 -246 -82 -253 -110 -286 -14
-16 -42 -38 -62 -48 -20 -11 -169 -49 -331 -85 -290 -65 -296 -66 -327 -101
l-33 -35 0 -310 0 -310 33 -35 c31 -34 38 -36 325 -100 161 -35 310 -74 331
-84 21 -11 50 -34 64 -50 28 -33 31 -41 112 -291 59 -183 108 -296 213 -492
70 -131 83 -186 60 -253 -8 -22 -87 -154 -176 -294 -169 -264 -179 -288 -151
-344 16 -31 399 -415 431 -433 60 -32 79 -24 353 151 142 91 277 170 299 176
69 19 116 4 298 -90 193 -100 340 -161 533 -219 145 -43 180 -59 211 -94 40
-43 53 -86 119 -379 64 -290 65 -294 100 -327 l35 -32 310 0 310 0 35 33 c35
32 36 36 101 327 84 381 97 404 258 451 131 37 260 81 346 116 102 42 314 149
387 195 l52 33 -538 544 c-440 444 -542 543 -557 537 -125 -49 -427 -70 -604
-42 -495 78 -909 439 -1054 917 -46 152 -59 257 -53 434 8 225 31 305 89 305
10 0 179 -160 394 -372 206 -205 383 -376 392 -381 19 -8 677 134 694 151 8 8
158 658 158 686 0 6 -171 182 -380 391 -270 271 -380 387 -380 403 0 38 32 58
116 73 116 21 386 18 492 -5 559 -120 967 -552 1051 -1113 24 -159 9 -389 -36
-543 l-16 -55 544 -537 544 -537 32 52 c48 76 155 289 196 387 35 86 79 217
116 345 11 39 32 87 46 107 45 67 88 83 406 153 288 64 295 66 327 100 l32 35
0 310 0 310 -32 35 c-32 35 -38 36 -328 101 -162 36 -311 74 -331 85 -20 10
-48 32 -62 48 -28 33 -30 40 -110 286 -58 180 -113 306 -215 497 -67 125 -81
179 -63 243 6 22 85 157 176 299 175 274 183 293 151 354 -18 32 -402 415
-433 431 -56 28 -80 18 -344 -151 -140 -89 -272 -168 -294 -176 -66 -23 -122
-10 -252 60 -223 119 -408 196 -613 254 -145 41 -186 67 -224 140 -8 18 -45
164 -81 325 -64 290 -65 294 -100 327 l-35 32 -310 0 -310 0 -35 -32z"/>
<path d="M4264 2736 c-28 -28 -34 -42 -34 -76 0 -23 5 -51 11 -63 16 -31 1338
-1355 1371 -1373 15 -8 46 -14 69 -14 33 0 47 6 75 34 28 28 34 42 34 75 0 23
-6 54 -14 69 -18 33 -1342 1355 -1373 1371 -12 6 -40 11 -63 11 -34 0 -48 -6
-76 -34z"/>
</g>
</svg>
