<svg width="200" height="100" viewBox="0 0 366 208" fill="none" xmlns="http://www.w3.org/2000/svg">
<path d="M279.5 28.1H243L218.3 65.5V0H190.2V118.4H218.3V76.4L247.1 118.4H283.4L243.4 71.1L279.5 28.1Z" fill="#3771C8"/>
<path d="M125.6 63C126.3 55.4 131.1 44.7 143 44.7C155.9 44.7 158.9 56.1 158.9 63H125.6ZM144.6 26C113.2 26 99 51.3 99 74.2C99 102.4 116.5 120.2 147.2 120.2C159.4 120.2 170.6 118.4 179.9 114.7L176.2 95.7C168.6 98.1 160.9 99.4 151.3 99.4C138.2 99.4 126.7 93.9 125.8 82.2H184C184.4 80.2 184.9 75.9 184.9 71.1C184.8 48.8 173.7 26 144.6 26Z" fill="#3771C8"/>
<path d="M47.9 100.3C36.7 100.3 30.3 90.2 29.5 76.2V70.2C30.2 57.9 35.4 46 47.9 46C60.6 46 65.8 59.7 65.8 73.1C65.9 89.4 58.8 100.3 47.9 100.3ZM48.7 26C41.7 26 35.3 27.1 29.6 29.2V0H0.5V76.3C1.6 104 21.6 120.4 47.2 120.4C71.4 120.4 94.8 105.3 94.8 72.2C94.8 45.1 76.4 26 48.7 26Z" fill="#3771C8"/>
<path d="M318.6 100.3C306.6 100.3 300.1 88.7 300.1 73.2C300.1 59.9 305.1 46.1 318.6 46.1C331.3 46.1 336.5 59.8 336.5 73.2C336.5 89.4 329.5 100.3 318.6 100.3ZM319.3 26C290.3 26 271.1 44.6 271.1 73.8C271.1 103 291.4 120.3 317.8 120.3C342 120.3 365.4 105.2 365.4 72.1C365.5 45.1 347 26 319.3 26Z" fill="#3771C8"/>
<path d="M0.5 179.7V208L355.2 158.1V129.8L0.5 179.7Z" fill="#3771C8"/>
</svg>
