<svg width="58" height="13" viewBox="0 0 58 13" fill="none" xmlns="http://www.w3.org/2000/svg">
<path d="M0.015625 12V0.625H4C5.38021 0.625 6.42708 0.890625 7.14062 1.42188C7.85417 1.94792 8.21094 2.72135 8.21094 3.74219C8.21094 4.29948 8.06771 4.79167 7.78125 5.21875C7.49479 5.64062 7.09635 5.95052 6.58594 6.14844C7.16927 6.29427 7.6276 6.58854 7.96094 7.03125C8.29948 7.47396 8.46875 8.01562 8.46875 8.65625C8.46875 9.75 8.11979 10.5781 7.42188 11.1406C6.72396 11.7031 5.72917 11.9896 4.4375 12H0.015625ZM2.35938 7.04688V10.1172H4.36719C4.91927 10.1172 5.34896 9.98698 5.65625 9.72656C5.96875 9.46094 6.125 9.09635 6.125 8.63281C6.125 7.59115 5.58594 7.0625 4.50781 7.04688H2.35938ZM2.35938 5.39062H4.09375C5.27604 5.36979 5.86719 4.89844 5.86719 3.97656C5.86719 3.46094 5.71615 3.09115 5.41406 2.86719C5.11719 2.63802 4.64583 2.52344 4 2.52344H2.35938V5.39062ZM21.1781 6.57031C21.1781 7.6901 20.9802 8.67188 20.5844 9.51562C20.1885 10.3594 19.6208 11.0104 18.8813 11.4688C18.1469 11.9271 17.3031 12.1562 16.35 12.1562C15.4073 12.1562 14.5661 11.9297 13.8266 11.4766C13.087 11.0234 12.5141 10.3776 12.1078 9.53906C11.7016 8.69531 11.4958 7.72656 11.4906 6.63281V6.07031C11.4906 4.95052 11.6911 3.96615 12.0922 3.11719C12.4984 2.26302 13.0688 1.60938 13.8031 1.15625C14.5427 0.697917 15.3865 0.46875 16.3344 0.46875C17.2823 0.46875 18.1234 0.697917 18.8578 1.15625C19.5974 1.60938 20.1677 2.26302 20.5688 3.11719C20.975 3.96615 21.1781 4.94792 21.1781 6.0625V6.57031ZM18.8031 6.05469C18.8031 4.86198 18.5896 3.95573 18.1625 3.33594C17.7354 2.71615 17.126 2.40625 16.3344 2.40625C15.5479 2.40625 14.9411 2.71354 14.5141 3.32812C14.087 3.9375 13.8708 4.83333 13.8656 6.01562V6.57031C13.8656 7.73177 14.0792 8.63281 14.5063 9.27344C14.9333 9.91406 15.5479 10.2344 16.35 10.2344C17.1365 10.2344 17.7406 9.92708 18.1625 9.3125C18.5844 8.69271 18.7979 7.79167 18.8031 6.60938V6.05469ZM30.3797 9.01562C30.3797 8.57292 30.2234 8.23438 29.9109 8C29.5984 7.76042 29.0359 7.51042 28.2234 7.25C27.4109 6.98438 26.7677 6.72396 26.2938 6.46875C25.0021 5.77083 24.3563 4.83073 24.3563 3.64844C24.3563 3.03385 24.5281 2.48698 24.8719 2.00781C25.2208 1.52344 25.7182 1.14583 26.3641 0.875C27.0151 0.604167 27.7443 0.46875 28.5516 0.46875C29.3641 0.46875 30.088 0.617188 30.7234 0.914062C31.3589 1.20573 31.851 1.61979 32.2 2.15625C32.5542 2.69271 32.7313 3.30208 32.7313 3.98438H30.3875C30.3875 3.46354 30.2234 3.0599 29.8953 2.77344C29.5672 2.48177 29.1063 2.33594 28.5125 2.33594C27.9396 2.33594 27.4943 2.45833 27.1766 2.70312C26.8589 2.94271 26.7 3.26042 26.7 3.65625C26.7 4.02604 26.8849 4.33594 27.2547 4.58594C27.6297 4.83594 28.1792 5.07031 28.9031 5.28906C30.2365 5.6901 31.2078 6.1875 31.8172 6.78125C32.4266 7.375 32.7313 8.11458 32.7313 9C32.7313 9.98438 32.3589 10.7578 31.6141 11.3203C30.8693 11.8776 29.8667 12.1562 28.6063 12.1562C27.7313 12.1562 26.9344 11.9974 26.2156 11.6797C25.4969 11.3568 24.9474 10.9167 24.5672 10.3594C24.1922 9.80208 24.0047 9.15625 24.0047 8.42188H26.3563C26.3563 9.67708 27.1063 10.3047 28.6063 10.3047C29.1635 10.3047 29.5984 10.1927 29.9109 9.96875C30.2234 9.73958 30.3797 9.42188 30.3797 9.01562ZM44.8547 8.21094C44.7661 9.4349 44.313 10.3984 43.4953 11.1016C42.6828 11.8047 41.6099 12.1562 40.2766 12.1562C38.8182 12.1562 37.6698 11.6667 36.8312 10.6875C35.9979 9.70312 35.5812 8.35417 35.5812 6.64062V5.94531C35.5812 4.85156 35.774 3.88802 36.1594 3.05469C36.5448 2.22135 37.0943 1.58333 37.8078 1.14062C38.5266 0.692708 39.3599 0.46875 40.3078 0.46875C41.6203 0.46875 42.6776 0.820312 43.4797 1.52344C44.2818 2.22656 44.7453 3.21354 44.8703 4.48438H42.5266C42.4693 3.75 42.2635 3.21875 41.9094 2.89062C41.5604 2.55729 41.0266 2.39062 40.3078 2.39062C39.5266 2.39062 38.9406 2.67188 38.55 3.23438C38.1646 3.79167 37.9667 4.65885 37.9562 5.83594V6.69531C37.9562 7.92448 38.1411 8.82292 38.5109 9.39062C38.8859 9.95833 39.4745 10.2422 40.2766 10.2422C41.0005 10.2422 41.5396 10.0781 41.8937 9.75C42.2531 9.41667 42.4589 8.90365 42.5109 8.21094H44.8547ZM57.2516 12H54.9078V7.125H50.3375V12H47.9938V0.625H50.3375V5.23438H54.9078V0.625H57.2516V12Z" fill="#ED1D24"/>
</svg>
