<svg width="366" height="78" viewBox="0 0 366 78" fill="none" xmlns="http://www.w3.org/2000/svg">
<path d="M109.6 17H82.9L71.9 60H105.4C117.1 60 131.4 51.8 131.4 36.1C131.3 24.7 124.8 17 109.6 17ZM113.3 38.1C112.5 45.9 107.7 52 96.2 52H92L98.2 28H103.5C109.1 28 114.2 29.5 113.3 38.1Z" fill="#0099CC"/>
<path d="M174.9 17H154.8L130.5 60H140.5L144.5 53H163.5L164.8 60H182.9L174.9 17ZM150.6 42L158.7 27.7L161.4 42H150.6Z" fill="#0099CC"/>
<path d="M353.6 17.4H365.5L354.5 60.2H334.5L325 35.9L318.8 60.2H306.8L317.9 17.5L337.5 17.4L347.2 42.2L353.6 17.4Z" fill="#0099CC"/>
<path d="M229 17.4H247.2L243.5 31.7L259.9 17.4H277.7L254.5 37.7L270.8 60.2H250.3L239.8 45.8L236.1 60.2H218L229 17.4Z" fill="#0099CC"/>
<path d="M289.2 17.4H307.3L296.3 60.2H278.2L289.2 17.4Z" fill="#0099CC"/>
<path d="M200.4 17.4H218.6L207.5 60.2H189.4L200.4 17.4Z" fill="#0099CC"/>
<path d="M0.5 0.900024H83L0.5 77.1V0.900024Z" fill="#33CCFF"/>
<path d="M41.7 0.900024H0.5V39L41.7 0.900024Z" fill="#231F20"/>
</svg>
