<svg id="Layer_5" enable-background="new 0 0 64 64" height="512" viewBox="0 0 64 64" width="512" xmlns="http://www.w3.org/2000/svg"><path d="m56 50v8c0 2.21-1.79 4-4 4h-36v-12h26z" fill="#ccd1d9"/><path d="m56 6v2h-40v-6h36c2.21 0 4 1.79 4 4z" fill="#ccd1d9"/><path d="m56 8v12h-40v-12z" fill="#ffeaa7"/><path d="m42 50h-26v-6h6.26 6 6 3.74v2c0 2.21 1.79 4 4 4z" fill="#ecc19c"/><path d="m40.26 44h4.08 11.32 4.08 2.26v2c0 2.21-1.79 4-4 4h-2-14c-2.21 0-4-1.79-4-4v-2z" fill="#cf9e76"/><path d="m56 20v10.53c-1.66-1.59-3.73-2.53-6-2.53-1.05 0-2.06.2-3 .58v-.01c-.94-.37-1.95-.57-3-.57s-2.06.2-3 .58v-.01c-.94-.37-1.95-.57-3-.57s-2.06.2-3 .58v-.01c-.94-.37-1.95-.57-3-.57s-2.06.2-3 .58v-.01c-.94-.37-1.95-.57-3-.57-5.61 0-10 5.71-10 13v-21z" fill="#e6e9ed"/><path d="m29 28.58c-4.1 1.62-7 6.5-7 12.42 0 1.04.09 2.04.26 3h-6.26v-3c0-7.29 4.39-13 10-13 1.05 0 2.06.2 3 .57z" fill="#fcd770"/><path d="m41 28.58c-4.1 1.62-7 6.5-7 12.42 0 1.04.09 2.04.26 3h-6c-.17-.96-.26-1.96-.26-3 0-5.92 2.9-10.8 7-12.42.94-.38 1.95-.58 3-.58s2.06.2 3 .57z" fill="#fcd770"/><path d="m29 28.58c.94-.38 1.95-.58 3-.58s2.06.2 3 .57v.01c-4.1 1.62-7 6.5-7 12.42 0 1.04.09 2.04.26 3h-6c-.17-.96-.26-1.96-.26-3 0-5.92 2.9-10.8 7-12.42z" fill="#ffeaa7"/><path d="m47 28.58c-4.1 1.62-7 6.5-7 12.42 0 1.04.09 2.04.26 3h-2.26-3.74c-.17-.96-.26-1.96-.26-3 0-5.92 2.9-10.8 7-12.42.94-.38 1.95-.58 3-.58s2.06.2 3 .57z" fill="#ffeaa7"/><path d="m16 44v6 12h-10c-2.21 0-4-1.79-4-4v-52c0-2.21 1.79-4 4-4h10v6 12 21z" fill="#969faa"/><path d="m56 30.53c-1.66-1.59-3.73-2.53-6-2.53-1.05 0-2.06.2-3 .58-4.1 1.62-7 6.5-7 12.42 0 1.04.09 2.04.26 3h19.48c.17-.96.26-1.96.26-3 0-4.34-1.56-8.12-4-10.47z" fill="#fcd770"/><path d="m56 41c0 1.05-.12 2.06-.34 3h-11.32c-.22-.94-.34-1.95-.34-3 0-4.97 2.69-9 6-9s6 4.03 6 9z" fill="#ffeaa7"/><g fill="#69d6f4"><path d="m52 13v2c0 .55-.45 1-1 1h-5v-4h5c.55 0 1 .45 1 1z"/><path d="m34 12h6v4h-6z"/><path d="m40 12h6v4h-6z"/><path d="m34 12v4h-5c-.55 0-1-.45-1-1v-2c0-.55.45-1 1-1z"/></g><circle cx="22" cy="14" fill="#ff826e" r="2"/><path d="m60.88 43c.071-.66.12-1.327.12-2 0-4.437-1.544-8.328-4-10.875v-24.125c0-2.757-2.243-5-5-5h-46c-2.757 0-5 2.243-5 5v52c0 2.757 2.243 5 5 5h46c2.757 0 5-2.243 5-5v-7h1c2.757 0 5-2.243 5-5v-3zm-1.88-2c0 .675-.055 1.341-.135 2h-2.02c.093-.656.155-1.322.155-2 0-5.607-3.075-10-7-10s-7 4.393-7 10c0 .678.062 1.344.155 2h-2.02c-.08-.659-.135-1.325-.135-2 0-6.729 3.953-12 9-12s9 5.271 9 12zm-13.819 2c-.108-.653-.181-1.318-.181-2 0-4.337 2.29-8 5-8s5 3.663 5 8c0 .682-.073 1.347-.181 2zm9.819-24h-38v-10h38zm-25.865 24c-.08-.658-.135-1.325-.135-2 0-6.729 3.953-12 9-12 .088 0 .175.009.263.012-3.175 2.43-5.263 6.836-5.263 11.988 0 .673.049 1.34.12 2zm-2.135-2c0 .673.049 1.34.12 2h-3.985c-.08-.658-.135-1.325-.135-2 0-6.729 3.953-12 9-12 .088 0 .175.009.263.012-3.175 2.43-5.263 6.836-5.263 11.988zm-6 0c0 .673.049 1.34.12 2h-4.12v-2c0-6.729 3.953-12 9-12 .088 0 .175.009.263.012-3.175 2.43-5.263 6.836-5.263 11.988zm-4 4h20v1c0 1.13.391 2.162 1.026 3h-21.026zm18.135-2c-.08-.658-.135-1.325-.135-2 0-6.729 3.953-12 9-12 .088 0 .175.009.263.012-3.175 2.43-5.263 6.836-5.263 11.988 0 .673.049 1.34.12 2zm14.865-16c-1.043 0-2.043.189-2.993.519-.972-.338-1.98-.519-3.007-.519-1.043 0-2.044.189-2.994.52-.971-.339-1.978-.52-3.006-.52-1.043 0-2.044.189-2.994.52-.971-.339-1.978-.52-3.006-.52-1.043 0-2.044.189-2.993.519-.971-.338-1.979-.519-3.007-.519-3.766 0-7.026 2.299-9 5.87v-11.87h38v7.494c-1.494-.95-3.186-1.494-5-1.494zm5-21v1h-38v-4h35c1.654 0 3 1.346 3 3zm-52 52v-52c0-1.654 1.346-3 3-3h9v58h-9c-1.654 0-3-1.346-3-3zm52 0c0 1.654-1.346 3-3 3h-35v-10h38zm6-12c0 1.654-1.346 3-3 3h-16c-1.654 0-3-1.346-3-3v-1h22z"/><path d="m22 17c1.654 0 3-1.346 3-3s-1.346-3-3-3-3 1.346-3 3 1.346 3 3 3zm0-4c.551 0 1 .449 1 1s-.449 1-1 1-1-.449-1-1 .449-1 1-1z"/><path d="m29 17h22c1.103 0 2-.897 2-2v-2c0-1.103-.897-2-2-2h-22c-1.103 0-2 .897-2 2v2c0 1.103.897 2 2 2zm10-2h-4v-2h4zm2-2h4v2h-4zm10.001 2h-4.001v-2h4zm-22.001-2h4v2h-4z"/><path d="m43 53h2v2h-2z"/><path d="m47 53h2v2h-2z"/><path d="m51 53h2v2h-2z"/><path d="m11 53h2v2h-2z"/><path d="m11 57h2v2h-2z"/><path d="m11 49h2v2h-2z"/><path d="m5 9h2v2h-2z"/><path d="m5 5h2v2h-2z"/><path d="m5 13h2v2h-2z"/></svg>