<svg width="370" height="86" viewBox="0 0 370 86" fill="none" xmlns="http://www.w3.org/2000/svg">
<path d="M0 85.2C84.9 85.2 84.9 85.2 84.9 85.2C84.9 0.900009 84.9 0.899994 84.9 0.899994C-7.62939e-06 0.899994 0 0.899994 0 0.899994V85.2ZM54.4 7.3C69.4 12.2 80.3 26.3 80.3 43C80.3 59.4 69.7 73.5 54.4 78.7V7.3ZM42.5 5.39999C45.2 5.39999 48.1 5.7 50.5 6.2C50.5 25.3 31.9 41 12.7 41C4.7 41 4.7 41 4.7 41C5.9 21.4 22.2 5.39999 42.5 5.39999ZM12.6 45C31.8 45 50.4 60.7 50.4 79.8C48 80.3 45 80.7 42.4 80.7C22.2 80.7 5.3 64.6 4.5 45H12.6Z" fill="#002D62"/>
<path d="M113.4 50.4C113.4 45.1 113.4 45.1 113.4 45.1C131.1 45.1 131.1 45.1 131.1 45.1C131.1 38.3 131.1 38.3 131.1 38.3C113.4 38.3 113.4 38.3 113.4 38.3C113.4 28.4 113.4 28.4 113.4 28.4C132.2 28.4 132.2 28.4 132.2 28.4C132.2 21.6 132.2 21.6 132.2 21.6C106.2 21.6 106.2 21.6 106.2 21.6C106.2 36.1 106.2 36.1 106.2 36.1C106.2 50 106.2 50 106.2 50C106.2 57.2 109.3 62.1 116.5 63.1C116.7 63.1 116.8 63.2 116.9 63.2C117 63.2 117 63.2 117 63.2C117.7 63.3 118.5 63.3 119.3 63.3C132.7 63.3 132.7 63.3 132.7 63.3C132.7 56.5 132.7 56.5 132.7 56.5C119.4 56.5 119.4 56.5 119.4 56.5C117.1 56.7 113.4 55.5 113.4 50.4Z" fill="#002D62"/>
<path d="M137.8 41.4V63.4H145.1V41.3V21.7H137.8V41.4Z" fill="#002D62"/>
<path d="M165.8 32.3C156.7 32.3 149.8 38.6 149.8 48.3C149.8 48.5 149.8 48.5 149.8 48.5C149.8 58 156.4 64.1 166 64.1C170.6 64.1 174.9 62.8 178.8 58.7C174.4 54.5 174.4 54.5 174.4 54.5C172.1 56.8 169.9 58 166.1 58C160.7 58 157.1 54.9 156.9 50.1C180.7 50.1 180.7 50.1 180.7 50.1C180.8 48.9 180.8 47.6 180.8 47.6C180.9 39.1 174.9 32.3 165.8 32.3ZM157.2 45C157.5 41.3 161.3 38.4 165.8 38.4C170.1 38.4 173.5 41.4 173.5 45H157.2Z" fill="#002D62"/>
<path d="M201.2 38.7C204.5 38.7 206.9 39.9 208.9 42C213.4 37.4 213.4 37.4 213.4 37.4C209.9 33.7 205.7 32.2 201.2 32.2C192 32.2 184.6 39 184.6 48.3C184.6 57.6 192 64.4 201.2 64.4C205.7 64.4 209.9 62.9 213.4 59.2C208.9 54.6 208.9 54.6 208.9 54.6C206.8 56.7 204.4 57.9 201.2 57.9C195.9 57.9 191.8 53.9 191.8 48.4C191.8 42.8 195.9 38.7 201.2 38.7Z" fill="#002D62"/>
<path d="M225.2 50.4C225.2 39.8 225.2 39.8 225.2 39.8C231.8 39.8 231.8 39.8 231.8 39.8C231.8 33.3 231.8 33.3 231.8 33.3C225.2 33.3 225.2 33.3 225.2 33.3C225.2 21.8 225.2 21.8 225.2 21.8C218 21.8 218 21.8 218 21.8C218 36.8 218 36.8 218 36.8C218 51 218 51 218 51C218.2 57.8 221.3 62.4 228.3 63.4C228.5 63.4 228.6 63.5 228.7 63.5C228.8 63.5 228.8 63.5 228.8 63.5C229.5 63.6 230.3 63.6 231.1 63.6C231.9 63.6 231.9 63.6 231.9 63.6C231.9 56.8 231.9 56.8 231.9 56.8C231.2 56.8 231.2 56.8 231.2 56.8C228.9 56.7 225.2 55.5 225.2 50.4Z" fill="#002D62"/>
<path d="M245.1 37.7C245.1 33.2 245.1 33.2 245.1 33.2C237.9 33.2 237.9 33.2 237.9 33.2C237.9 48 237.9 48 237.9 48C237.9 63.4 237.9 63.4 237.9 63.4C245.1 63.4 245.1 63.4 245.1 63.4C245.1 47.5 245.1 47.5 245.1 47.5C245.1 42.5 248.3 39.4 253.3 39.4C254.5 39.4 255.5 39.5 256.3 39.7C256.3 32.8 256.3 32.8 256.3 32.8C256 32.7 254.9 32.6 254.1 32.6C249.8 32.6 246.5 34.6 245.1 37.7Z" fill="#002D62"/>
<path d="M274 32.3C264.8 32.3 257.4 39.2 257.4 48.3C257.4 57.3 264.7 64.3 274 64.3C283.2 64.3 290.6 57.3 290.6 48.3C290.6 39.3 283.1 32.3 274 32.3ZM274 57.8C268.6 57.8 264.6 53.7 264.6 48.3C264.6 42.9 268.6 38.8 274 38.8C279.3 38.8 283.4 42.9 283.4 48.3C283.4 53.7 279.3 57.8 274 57.8Z" fill="#002D62"/>
<path d="M295 40.7V63.4H302.3V41V21.7H295V40.7Z" fill="#002D62"/>
<path d="M328.4 50.8C328.4 55.6 325.6 57.6 321.8 57.6C318 57.6 315.2 55.6 315.2 50.8C315.2 33.2 315.2 33.2 315.2 33.2C307.9 33.2 307.9 33.2 307.9 33.2C307.9 41.9 307.9 41.9 307.9 41.9C307.9 51.4 307.9 51.4 307.9 51.4C307.9 60 314.2 64.2 321.8 64.2C329.4 64.2 335.8 60 335.8 51.3C335.8 42 335.8 42 335.8 42C335.8 33.3 335.8 33.3 335.8 33.3C328.5 33.3 328.5 33.3 328.5 33.3V50.8H328.4Z" fill="#002D62"/>
<path d="M363 53.8L358.5 47.4L364.1 39.8L369 33.2H361.1L354.5 42.3L347.9 33.2H340L344.5 39.3L350.5 47.5L344.2 56.2L339 63.4H346.8L354.5 52.8L362.2 63.4H370L363 53.8Z" fill="#002D62"/>
</svg>
