<svg width="360" height="174" viewBox="0 0 360 174" fill="none" xmlns="http://www.w3.org/2000/svg">
<path d="M161.1 69.3C161.1 65.8 158.4 61.9 154.8 61.9H181.1C177.6 61.9 174.8 65.8 174.8 69.3V134.5C174.8 138.1 177.5 141.9 181.1 141.9H154.8C158.3 141.9 161.1 138.1 161.1 134.5V69.3Z" fill="#EC1D24"/>
<path d="M20 102.8H38.4C41.9 102.8 45.3 105.5 45.3 109.1L45.2 94.7H20V70H44.4C48 70 51.3 72.7 51.3 76.4V61.9H0C3.6 61.9 6.3 65.8 6.3 69.3V134.5C6.3 138.1 3.6 141.9 0 141.9H26.4C22.8 141.9 20 138.1 20 134.5V102.8Z" fill="#EC1D24"/>
<path d="M72.7 120.5C72.7 128.8 79.5 136 87.8 136C96.1 136 102.9 128.6 102.9 120.3V69.3C102.9 65.8 100.2 61.9 96.5 61.9H123C119.4 61.9 116.6 65.8 116.6 69.3V118.9C116.6 134.8 103.8 144.1 87.9 144.1C72 144.1 59 134.8 59 118.9V69.3C59 65.8 56.3 61.9 52.7 61.9H79C75.4 61.9 72.7 65.8 72.7 69.3V120.5Z" fill="#EC1D24"/>
<path d="M145.7 69.3C145.7 65.8 148.4 61.9 152.1 61.9H125.7C129.3 61.9 132.1 65.8 132.1 69.3V150.8C132.1 150.8 131.8 165.3 120.4 173.6C120.4 173.6 145.8 170 145.8 146L145.7 69.3Z" fill="#EC1D24"/>
<path d="M309.8 120.5C309.8 128.8 316.6 136 324.9 136C333.2 136 340 128.6 340 120.3V69.3C340 65.8 337.3 61.9 333.7 61.9H360C356.5 61.9 353.7 65.8 353.7 69.3V118.9C353.7 134.8 340.8 144.1 325 144.1C309.1 144.1 296.1 134.8 296.1 118.9L296.2 69.3C296.2 65.8 293.5 61.9 289.8 61.9H316.2C312.6 61.9 309.8 65.8 309.8 69.3V120.5" fill="#EC1D24"/>
<path d="M283.5 75C279.2 67.6 269.1 68.6 269.1 68.6C253 68.6 253.8 81.2 253.8 81.2C253.8 81.2 252.7 87.5 260.8 91.8L276.9 100.6C292.4 109.2 290.6 121.3 290.6 121.3C290.6 121.3 291.3 144.1 258.8 144.1C258.8 144.1 249.4 144.4 244 142.4L239.3 127.4C244.1 135 258.9 136.1 258.9 136.1C277.1 135.2 277.3 122.5 277.3 122.5C277.3 122.5 278.2 117 271 113L254.9 104.2C238.2 95 240.1 82.7 240.1 82.7C240.1 82.7 239.7 60.3 268.5 60.3C268.5 60.3 281.4 60.6 283.5 62.7V75" fill="#EC1D24"/>
<path d="M185.8 61.8L181.4 76.5C184.9 69.9 190.4 69.9 190.4 69.9H204.3V134.5C204.3 138.1 201.6 141.9 198 141.9H224.3C220.8 141.9 218 138.1 218 134.5V70H229.7C233.3 70 236.2 72.9 236.2 76.5L240.5 61.9H185.8" fill="#EC1D24"/>
<path d="M157.7 34C160.6 36.9 164.5 38.6 168.9 38.6C177.7 38.6 184.8 31.5 184.8 22.8C184.8 14 177.7 6.89999 168.9 6.89999C168.9 6.89999 156.7 5.79999 151.2 21.4V9.7C155.3 4.3 161.6 0.5 168.9 0.5C181.3 0.5 191.3 10.5 191.3 22.9C191.3 35.2 181.3 45.2 168.9 45.2C162.7 45.2 157.2 42.7 153.1 38.7L145.4 30.1C143.3 28 140.4 26.7 137.2 26.7C130.8 26.7 125.6 31.9 125.6 38.3C125.6 44.7 130.8 49.9 137.2 49.9C137.2 49.9 145.8 51 151.2 40.5V49.9C147.9 53.9 142.8 56.5 137.2 56.5C127.2 56.5 119.1 48.4 119.1 38.4C119.1 28.4 127.2 20.3 137.2 20.3C142.2 20.3 146.7 22.3 150 25.6L157.7 34Z" fill="#EC1D24"/>
</svg>
