<svg width="366" height="72" viewBox="0 0 366 72" fill="none" xmlns="http://www.w3.org/2000/svg">
<path d="M86.2 31.5C86.4 33 86.6 34.4 86.6 35.9C86.6 55.6 67.2 71.5 43.5 71.5C40 71.5 36.6 71.2 33.4 70.5C34.8 67.7 37.8 61.4 42.7 50.1C49.9 33.6 36.9 32.9 36.9 32.9L37.2 31.5H86.2V31.5Z" fill="#F04D24"/>
<path d="M43.5 0.400024C62.6 0.400024 78.9 10.8 84.5 25.1H38L19 65.3C7.8 58.8 0.5 48.1 0.5 36C0.5 16.4 19.8 0.400024 43.5 0.400024Z" fill="#034DA2"/>
<path d="M365.5 14.8H330.5C330.5 14.8 306.9 13.7 303.9 38.9C300.9 64.1 313.7 68.2 326.1 68.2H353.6L355.4 61.2H330.7C330.7 61.2 318.8 60.2 320.6 43.1C320.6 43 320.6 42.8 320.6 42.7H356.3L358.2 36.6H321.5C324.1 24.7 329.6 20.9 337.7 20.9H363.4L365.5 14.8ZM305.6 14.8H270.6C270.6 14.8 247 13.7 244 38.9C241 64.1 253.8 68.2 266.2 68.2H293.7L295.5 61.2H270.8C270.8 61.2 258.9 60.2 260.7 43.1C260.8 43 260.8 42.8 260.8 42.7H296.5L298.4 36.6H261.7C264.3 24.7 269.9 20.9 277.9 20.9H303.6L305.6 14.8ZM184.6 14.8H226.6C226.6 14.8 243.8 14.1 241 28.3C238.2 42.6 226.2 43.1 223.4 43.1L237.1 68.3H224.7C224.7 68.3 218.1 70.4 212.4 59.8C206.7 49.2 200 36.6 200 36.6H212.4C212.4 36.6 221.3 36.9 223.9 29.9C226.4 22.9 221.2 21.4 217 21.4H200.7L187.8 68.6H170.2L184.6 14.8ZM175.4 14.7H133.7C133.7 14.7 111.4 14.3 104.5 39.7C104.5 39.7 95.6 65.2 121.8 68.2H152.7C152.7 68.2 162.2 69.9 166.2 54.1C170.2 38.3 170.5 36.5 170.5 36.5H140.5L138.2 43.7H152.3L148.7 56.3C148.7 56.3 147.8 60.9 144 61.1C140.3 61.4 130.6 61.1 130.6 61.1C130.6 61.1 121.9 61.6 121.1 51.9C120.3 42.2 125.3 22.1 140.9 22.1H173L175.4 14.7Z" fill="#034DA2"/>
</svg>
