<svg width="370" height="105" viewBox="0 0 370 105" fill="none" xmlns="http://www.w3.org/2000/svg">
<path d="M359.1 20.2L370 36.8C356.7 43.2 353 48.4 347.4 56.3C347.4 72.1 347.4 87.9 347.4 103.7C339.9 103.7 332.4 103.7 324.8 103.7C324.8 86.4 324.8 69.1 324.8 51.8C330.9 41.4 340.9 26.9 359.1 20.2Z" fill="#22437B"/>
<path d="M234.6 54.1C243.9 16.2 320.6 16 313.6 72.1H254.9C254.9 82.8 266.3 87.8 274.3 87.8C282.3 87.8 288.4 82.5 294.1 76.7L310.5 82.1C285.7 122.7 222.9 102 234.6 54.1ZM254.9 58.6H293.3C293.3 40.5 254.9 40.5 254.9 58.6Z" fill="#22437B"/>
<path d="M223.4 29.1C223.4 53.2 223.4 79.7 223.4 103.7C215.1 103.7 206.8 103.7 198.6 103.7C198.6 79.7 198.6 53.1 198.6 29.1H223.4Z" fill="#22437B"/>
<path d="M223.4 0V22.4L198.5 22.5V0H223.4Z" fill="#22437B"/>
<path d="M187.3 29.1V103.7H164.7V97C147.6 114.1 105.5 98.8 105.5 65.4C105.5 32 147.3 19.2 164.6 36.5L164.8 29.2L187.3 29.1ZM147.3 86.2C171.4 86.2 171.4 46.9 147.3 46.9C119.6 46.9 119.6 86.2 147.3 86.2Z" fill="#22437B"/>
<path d="M94.8 0C94.8 34.6 94.8 69.2 94.8 103.8C86.5 103.8 78.2 103.8 70 103.8V63.2L24.7 63C24.7 63 24.8 89.5 24.8 103.8C16.5 103.8 8.2 103.8 0 103.8V0C8.3 0 16.5 0 24.8 0C24.8 12.8 24.8 40.6 24.8 40.6H69.9V0C78.2 0 86.5 0 94.8 0Z" fill="#22437B"/>
</svg>
