<?xml version="1.0" encoding="iso-8859-1"?>
<!-- Generator: Adobe Illustrator 19.0.0, SVG Export Plug-In . SVG Version: 6.00 Build 0)  -->
<svg version="1.1" id="Capa_1" xmlns="http://www.w3.org/2000/svg" xmlns:xlink="http://www.w3.org/1999/xlink" x="0px" y="0px"
	 viewBox="0 0 512 512" style="enable-background:new 0 0 512 512;" xml:space="preserve">
<path style="fill:#FFB427;" d="M491.112,295.177H20.888c-7.512,0-13.602-6.09-13.602-13.602V109.622
	c0-7.512,6.09-13.602,13.602-13.602h470.224c7.512,0,13.602,6.09,13.602,13.602v171.954
	C504.713,289.088,498.624,295.177,491.112,295.177z"/>
<path style="fill:#FF9D00;" d="M491.112,96.02h-33.694c7.512,0,13.602,6.09,13.602,13.602v106.916
	c-3.753-1.852-7.972-2.897-12.432-2.897H53.413c-15.546,0-28.193,12.648-28.193,28.194v53.344h465.892
	c7.512,0,13.602-6.09,13.602-13.602V109.622C504.713,102.11,498.624,96.02,491.112,96.02z"/>
<path style="fill:#0072A2;" d="M458.587,227.242H53.413c-8.059,0-14.592,6.533-14.592,14.592v53.344h434.358v-53.344
	C473.179,233.775,466.646,227.242,458.587,227.242z"/>
<path style="fill:#FF4D4A;" d="M355.178,190.17h-201.27c-5.902,0-10.687-4.785-10.687-10.687l0,0
	c0-5.902,4.785-10.687,10.687-10.687h201.27c5.902,0,10.687,4.785,10.687,10.687l0,0C365.865,185.386,361.08,190.17,355.178,190.17z
	"/>
<g>
	<path style="fill:#1A1A1A;" d="M81.649,321.574c0-4.025-3.262-7.287-7.287-7.287c-4.024,0-7.287,3.262-7.287,7.287
		c0,4.667-1.841,6.737-5.669,10.612c-4.167,4.218-9.875,9.995-9.875,20.854c0,10.86,5.708,16.637,9.875,20.855
		c3.829,3.877,5.669,5.947,5.669,10.615s-1.841,6.738-5.669,10.613c-4.167,4.219-9.875,9.997-9.875,20.857
		c0,4.025,3.262,7.287,7.287,7.287s7.287-3.262,7.287-7.287c0-4.668,1.841-6.738,5.669-10.615c4.167-4.218,9.875-9.995,9.875-20.855
		c0-10.86-5.708-16.638-9.875-20.857c-3.829-3.875-5.669-5.945-5.669-10.613c0-4.667,1.84-6.736,5.669-10.611
		C75.942,338.211,81.649,332.434,81.649,321.574z"/>
	<path style="fill:#1A1A1A;" d="M171.74,321.574c0-4.025-3.262-7.287-7.287-7.287c-4.024,0-7.287,3.262-7.287,7.287
		c0,4.667-1.841,6.737-5.669,10.612c-4.167,4.218-9.875,9.995-9.875,20.854c0,10.86,5.708,16.637,9.875,20.855
		c3.829,3.877,5.669,5.947,5.669,10.615s-1.841,6.738-5.669,10.613c-4.167,4.219-9.875,9.997-9.875,20.857
		c0,4.025,3.262,7.287,7.287,7.287c4.024,0,7.287-3.262,7.287-7.287c0-4.668,1.841-6.738,5.669-10.615
		c4.167-4.218,9.875-9.995,9.875-20.855c0-10.86-5.708-16.638-9.875-20.857c-3.829-3.875-5.669-5.945-5.669-10.613
		c0-4.667,1.84-6.736,5.669-10.611C166.032,338.211,171.74,332.434,171.74,321.574z"/>
	<path style="fill:#1A1A1A;" d="M442.009,321.574c0-4.025-3.262-7.287-7.287-7.287c-4.024,0-7.287,3.262-7.287,7.287
		c0,4.668-1.841,6.738-5.669,10.615c-4.167,4.218-9.875,9.995-9.875,20.855c0,10.86,5.708,16.638,9.875,20.856
		c3.829,3.877,5.669,5.947,5.669,10.615c0,4.667-1.84,6.736-5.669,10.611c-4.168,4.218-9.876,9.995-9.876,20.854
		c0,4.025,3.262,7.287,7.287,7.287s7.287-3.262,7.287-7.287c0-4.667,1.84-6.736,5.669-10.611c4.168-4.218,9.876-9.995,9.876-20.854
		c0-10.86-5.708-16.638-9.875-20.856c-3.829-3.877-5.669-5.947-5.669-10.615s1.841-6.738,5.669-10.613
		C436.301,338.212,442.009,332.434,442.009,321.574z"/>
	<path style="fill:#1A1A1A;" d="M351.919,321.574c0-4.025-3.262-7.287-7.287-7.287s-7.287,3.262-7.287,7.287
		c0,4.668-1.841,6.738-5.669,10.615c-4.167,4.218-9.875,9.995-9.875,20.855c0,10.86,5.708,16.638,9.875,20.856
		c3.829,3.877,5.669,5.947,5.669,10.615c0,4.667-1.84,6.736-5.669,10.611c-4.168,4.218-9.876,9.995-9.876,20.854
		c0,4.025,3.262,7.287,7.287,7.287s7.287-3.262,7.287-7.287c0-4.667,1.84-6.736,5.669-10.611c4.168-4.218,9.876-9.995,9.876-20.854
		c0-10.86-5.708-16.638-9.875-20.856c-3.829-3.877-5.669-5.947-5.669-10.615s1.841-6.738,5.669-10.613
		C346.211,338.212,351.919,332.434,351.919,321.574z"/>
	<path style="fill:#1A1A1A;" d="M261.829,321.574c0-4.025-3.262-7.287-7.287-7.287s-7.287,3.262-7.287,7.287
		c0,4.667-1.841,6.737-5.669,10.612c-4.167,4.218-9.875,9.995-9.875,20.854c0,10.86,5.708,16.637,9.875,20.855
		c3.829,3.877,5.669,5.947,5.669,10.615s-1.841,6.738-5.669,10.613c-4.167,4.219-9.875,9.997-9.875,20.857
		c0,4.025,3.262,7.287,7.287,7.287c4.024,0,7.287-3.262,7.287-7.287c0-4.668,1.841-6.738,5.669-10.615
		c4.167-4.218,9.875-9.995,9.875-20.855c0-10.86-5.708-16.638-9.875-20.857c-3.829-3.875-5.669-5.945-5.669-10.613
		c0-4.667,1.84-6.736,5.669-10.611C256.121,338.211,261.829,332.434,261.829,321.574z"/>
	<path style="fill:#1A1A1A;" d="M491.112,88.734h-33.154c-4.024,0-7.287,3.262-7.287,7.287c0,4.025,3.262,7.287,7.287,7.287h33.154
		c3.482,0,6.315,2.833,6.315,6.315v171.954c0,3.482-2.833,6.315-6.315,6.315h-10.647v-46.057c0-12.064-9.815-21.879-21.878-21.879
		H123.422c-4.024,0-7.287,3.262-7.287,7.287c0,4.025,3.262,7.287,7.287,7.287h335.166c4.028,0,7.305,3.277,7.305,7.306v1.532H46.108
		v-1.532c0-4.028,3.277-7.306,7.305-7.306h35.483c4.024,0,7.287-3.262,7.287-7.287c0-4.025-3.262-7.287-7.287-7.287H53.413
		c-12.064,0-21.878,9.815-21.878,21.879v46.057H20.888c-3.482,0-6.315-2.833-6.315-6.315V109.622c0-3.482,2.833-6.315,6.315-6.315
		h402.357c4.024,0,7.286-3.262,7.286-7.287c0-4.025-3.262-7.287-7.286-7.287H20.888C9.37,88.734,0,98.104,0,109.622v171.954
		c0,11.518,9.37,20.888,20.888,20.888h17.933h434.358h17.933c11.518,0,20.888-9.37,20.888-20.888V109.622
		C512,98.104,502.63,88.734,491.112,88.734z M465.892,287.89H46.108v-8.901h419.785v8.901H465.892z M465.892,264.416H46.108v-6.477
		h419.785v6.477H465.892z"/>
	<path style="fill:#1A1A1A;" d="M153.908,161.51c-9.911,0-17.973,8.063-17.973,17.973s8.063,17.973,17.973,17.973h201.27
		c9.911,0,17.973-8.063,17.973-17.973s-8.063-17.973-17.973-17.973L153.908,161.51L153.908,161.51z M358.578,179.483
		c0,1.875-1.526,3.4-3.4,3.4h-201.27c-1.875,0-3.4-1.526-3.4-3.4c0-1.875,1.526-3.4,3.4-3.4h201.27
		C357.053,176.083,358.578,177.609,358.578,179.483z"/>
</g>
<g>
</g>
<g>
</g>
<g>
</g>
<g>
</g>
<g>
</g>
<g>
</g>
<g>
</g>
<g>
</g>
<g>
</g>
<g>
</g>
<g>
</g>
<g>
</g>
<g>
</g>
<g>
</g>
<g>
</g>
</svg>
