<svg  viewBox="-90 1 511 511.999" xmlns="http://www.w3.org/2000/svg">
<path d="m7.335938 37.398438v433.460937l152.890624 16.808594 163.367188-16.808594v-433.460937c0-16.4375-13.53125-29.875-30.058594-29.875-77.328125 0-178.378906 0-256.109375 0-16.558593 0-30.089843 13.4375-30.089843 29.875zm0 0" fill="#bae0f2" fill-rule="evenodd"/>
<path d="m94.085938 143.402344c-8.078126 12.671875-9.902344 30.160156-7.933594 43.480468 5.679687 38.40625 49.695312 98.863282 84.609375 116.210938 12.128906 6.035156 29.429687 9.804688 44.074219 6.121094 7.90625-1.957032 16.496093-6.546875 21.949218-12.414063 2.742188-2.917969 7.082032-9.664062 6.539063-13.890625-1-7.621094-11.734375-15.84375-19.183594-21.425781-15.730469-12.445313-22.550781-14.144531-33.257813-7.058594-4.167968 5.160157-20.125-1.671875-32.796874-15.816406-2.625-2.917969-5.195313-6.09375-7.621094-9.410156-2.425782-3.34375-4.65625-6.746094-6.625-10.144531-9.535156-16.382813-11.101563-33.5625-4.851563-35.882813 10.132813-7.851563 10.644531-14.855469 3.679688-33.5625-2.996094-8.785156-7.476563-21.484375-14.5-24.828125-3.851563-1.8125-11.644531.171875-15.300781 1.816406-7.332032 3.3125-14.410157 9.976563-18.78125 16.804688zm0 0" fill="#55cf63" fill-rule="evenodd"/>
<path d="m240.382812 7.523438h-148.4375v20.125c0 7.113281 5.851563 12.953124 13.046876 12.953124h122.34375c7.195312 0 13.046874-5.839843 13.046874-12.953124zm0 0" fill="#616d80" fill-rule="evenodd"/>
<path d="m323.59375 470.859375h-316.257812v3.742187c0 16.410157 13.53125 29.875 30.089843 29.875h256.109375c16.527344 0 30.058594-13.464843 30.058594-29.875zm0 0" fill="#616d80" fill-rule="evenodd"/>
<path d="m293.535156 504.574219h-256.109375c-8.03125 0-15.601562-3.128907-21.324219-8.808594-5.714843-5.679687-8.863281-13.195313-8.863281-21.164063v-3.839843h316.457031v3.839843c0 7.964844-3.148437 15.480469-8.863281 21.164063-5.714843 5.679687-13.277343 8.808594-21.296875 8.808594zm-286.097656-33.613281v3.640624c0 16.417969 13.453125 29.777344 29.988281 29.777344h256.109375c16.519532 0 29.957032-13.359375 29.957032-29.777344v-3.640624zm0 0" fill="#616d80"/>
<path d="m7.335938 37.398438v433.460937h34.226562v-433.460937c0-16.4375 13.558594-29.875 30.089844-29.875h-34.226563c-16.558593 0-30.089843 13.4375-30.089843 29.875zm0 0" fill="#93baf0" fill-rule="evenodd"/><path d="m41.5625 470.859375h-34.226562v3.742187c0 16.410157 13.53125 29.875 30.089843 29.875h34.226563c-16.53125 0-30.058594-13.4375-30.089844-29.847656zm0 0" fill="#4b5c75" fill-rule="evenodd"/>
<path d="m120.921875 7.523438h-28.976563v20.125c0 7.113281 5.851563 12.953124 13.046876 12.953124h28.972656c-7.164063 0-13.042969-5.839843-13.042969-12.953124zm0 0" fill="#4b5c75" fill-rule="evenodd"/>
<path d="m86.152344 186.882812c5.679687 38.40625 49.699218 98.863282 84.609375 116.210938 12.132812 6.039062 29.429687 9.808594 44.074219 6.121094 7.566406-1.871094 15.757812-6.148438 21.238281-11.648438-.800781.226563-1.601563.453125-2.398438.652344-14.644531 3.65625-31.941406-.085938-44.074219-6.121094-34.910156-17.347656-78.957031-77.804687-84.609374-116.210937-1.96875-13.320313-.144532-30.808594 7.9375-43.480469 1.710937-2.691406 3.851562-5.355469 6.277343-7.792969-2.453125.507813-4.792969 1.273438-6.335937 1.984375-7.335938 3.316406-14.414063 9.976563-18.78125 16.808594-8.082032 12.667969-9.90625 30.15625-7.9375 43.476562zm0 0" fill="#32a352" fill-rule="evenodd"/>
<g fill="#3f4c63">
<path d="m238.757812 381.050781h-147.753906c-4.15625 0-7.523437-3.367187-7.523437-7.523437s3.367187-7.523438 7.523437-7.523438h147.753906c4.152344 0 7.523438 3.367188 7.523438 7.523438s-3.371094 7.523437-7.523438 7.523437zm0 0"/>
<path d="m238.757812 421.894531h-147.753906c-4.15625 0-7.523437-3.367187-7.523437-7.523437s3.367187-7.523438 7.523437-7.523438h147.753906c4.152344 0 7.523438 3.367188 7.523438 7.523438s-3.371094 7.523437-7.523438 7.523437zm0 0"/>
<path d="m229.503906 208.410156c-1.097656 0-2.210937-.238281-3.261718-.75-3.742188-1.804687-5.316407-6.300781-3.507813-10.042968 1.65625-3.4375 2.363281-7.265626 2.046875-11.070313-.304688-3.742187-1.628906-7.371094-3.828125-10.507813-2.25-3.214843-5.25-5.742187-8.683594-7.316406-3.507812-1.625-7.425781-2.289062-11.355469-1.925781-4.152343.382813-7.800781-2.664063-8.183593-6.800781-.382813-4.136719 2.660156-7.800782 6.800781-8.183594 6.570312-.605469 13.152344.515625 19.039062 3.246094 5.835938 2.675781 10.933594 6.953125 14.707032 12.347656 3.726562 5.316406 5.976562 11.507812 6.5 17.902344.539062 6.464844-.667969 12.988281-3.492188 18.84375-1.296875 2.691406-3.984375 4.257812-6.78125 4.257812zm0 0"/>
<path d="m263.535156 224.738281c-.847656 0-1.710937-.144531-2.550781-.449219-3.910156-1.410156-5.9375-5.722656-4.527344-9.628906 3.074219-8.523437 4.308594-17.800781 3.574219-26.828125-.921875-11.085937-4.820312-21.824219-11.277344-31.039062-6.550781-9.351563-15.40625-16.773438-25.613281-21.460938-7.832031-3.601562-16.546875-5.628906-25.28125-5.890625-.410156-.011718-.820313-.023437-1.234375-.027344-4.125-.046874-7.441406-3.402343-7.441406-7.519531 0-.027343 0-.058593 0-.085937.046875-4.125 3.40625-7.441406 7.523437-7.441406h.085938c11.242187.125 22.527343 2.648437 32.632812 7.292968 12.625 5.800782 23.570313 14.964844 31.652344 26.496094 7.980469 11.398438 12.808594 24.691406 13.949219 38.445312.910156 11.167969-.617188 22.628907-4.414063 33.160157-1.105469 3.066406-4 4.976562-7.078125 4.976562zm0 0"/>
<path d="m294.21875 0h-256.109375c-20.738281 0-37.609375 16.777344-37.609375 37.398438v437.203124c0 20.621094 16.871094 37.398438 37.609375 37.398438h256.109375c20.738281 0 37.613281-16.777344 37.613281-37.398438v-437.203124c0-20.621094-16.875-37.398438-37.613281-37.398438zm-194.75 15.046875h133.390625v12.601563c0 2.992187-2.476563 5.429687-5.519531 5.429687h-122.347656c-3.042969 0-5.523438-2.4375-5.523438-5.429687zm217.316406 459.554687c0 12.324219-10.125 22.351563-22.566406 22.351563h-256.109375c-12.441406 0-22.5625-10.027344-22.5625-22.351563v-437.203124c0-12.324219 10.121094-22.351563 22.5625-22.351563h46.3125v12.601563c0 11.289062 9.230469 20.476562 20.570313 20.476562h122.347656c11.339844 0 20.566406-9.1875 20.566406-20.476562v-12.601563h46.3125c12.441406 0 22.566406 10.027344 22.566406 22.351563zm0 0"/>
</g>
</svg>