<svg width="371" height="56" viewBox="0 0 371 56" fill="none" xmlns="http://www.w3.org/2000/svg">
<path d="M137.9 10.2V45.8H161.7V39.6H145.2V30.5H160.6V24.5H145.2V16.3H161.1V10.2H137.9V10.2ZM164.5 45.8H171.7V10H164.5V45.8ZM197 32.4C197 25.3 193.8 20.4 185.9 20.4C178 20.4 173.9 25.1 173.9 33.3C173.9 41.9 177 46.4 186.3 46.4C190.7 46.4 194.7 45.1 196.6 43.8L195.3 39.1C193.2 40.2 190.1 41 187.6 41C185.1 41 183.2 40.3 182.4 39.4C181.5 38.4 181 36.7 181 35H197V32.4ZM190 30.4H181C181.1 27 182.8 25.3 185.7 25.3C188.9 25.3 190 27.4 190 30.4ZM220.6 23.7C218.9 21.9 215.5 20.6 211.8 20.6C203.1 20.6 199 24.5 199 33.6C199 42.3 202.3 46.5 211.6 46.5C215.4 46.5 218.7 45.6 220.5 44.4L219 39.5C217.2 40.4 214.9 41 212.2 41C208.4 41 205.9 38.9 205.9 33.6C205.9 27.9 208 25.8 211.8 25.8C213.9 25.8 215.7 26.7 216.9 27.8L220.6 23.7ZM241.9 21H233.6V15.1L226.6 16.3V21.1H222.3V26.7H226.6V37.6C226.6 44.1 228.6 46.5 234.3 46.5C237.5 46.5 240.5 45.8 242.9 44.5L241.9 39.4C240.4 40.2 238.4 40.6 236.9 40.6C234.5 40.6 233.6 39.8 233.6 36.7V26.7H241.9V21ZM245.4 21V45.7H252.5V28.7C253.7 27.1 256 26.1 258.3 26.1C259.6 26.1 261 26.4 261.8 26.9L263.4 21.2C262.3 20.6 260.5 20.4 258.8 20.4C256.4 20.4 253.4 21.5 251.9 23.5V21H245.4ZM275.7 20.4C266.7 20.4 262.8 24.7 262.8 33.3C262.8 41.4 265.6 46.4 274.6 46.4C283.4 46.4 287.5 42.2 287.5 33.6C287.6 25.1 284.8 20.4 275.7 20.4ZM280.3 33.1C280.3 38.8 279.2 41.2 274.8 41.2C271.1 41.2 270 38.3 270 33.3C270 27.7 271.2 25.5 275.5 25.5C279.5 25.5 280.3 28.5 280.3 33.1ZM290.1 21V45.7H297.2V27.5C298.1 26.9 299.9 26.2 301.3 26.2C304.8 26.2 305.5 27.6 305.5 30.3V45.7H312.6V28.6C312.6 23.6 310.8 20.3 304.9 20.3C302.2 20.3 299.2 21 296.7 22.6V22.5V21H290.1ZM316.2 15.7H323.4V10H316.2V15.7ZM316.2 45.8H323.3V21H316.2V45.8ZM347.4 23.6C345.7 21.8 342.3 20.5 338.6 20.5C329.9 20.5 325.8 24.4 325.8 33.5C325.8 42.2 329.1 46.4 338.4 46.4C342.2 46.4 345.5 45.5 347.3 44.3L345.8 39.4C344 40.3 341.7 40.9 339 40.9C335.2 40.9 332.7 38.8 332.7 33.5C332.7 27.8 334.8 25.7 338.6 25.7C340.7 25.7 342.5 26.6 343.7 27.7L347.4 23.6ZM369.8 22.6C366.9 21.3 364.1 20.4 360.1 20.4C353.2 20.4 349.5 23.3 349.5 27.9C349.5 32.6 352.5 34.7 356.3 35.6L359.1 36.2C361.6 36.7 363.2 37.6 363.2 38.8C363.2 40.3 361.6 41.1 359.4 41.1C356.6 41.1 353.2 40.2 351.2 39L349.4 44.1C351.9 45.4 355.1 46.4 359.4 46.4C366 46.4 370.1 43.8 370.1 38.3C370.1 34.7 367.8 32.6 364.8 31.7C364 31.5 362.4 31 361.4 30.8C358.8 30.3 356.2 29.7 356.2 27.8C356.2 26.3 357.8 25.5 360.3 25.5C363.1 25.5 365.9 26.2 367.9 27.3L369.8 22.6Z" fill="#6B6C6C"/>
<path d="M77.8 45.8H92.9V38.9H75.8V10.2H67.6V45.8H77.8Z" fill="#6B6C6C"/>
<path d="M111 32.2H117.7V38.4C116.5 38.9 114 39.3 111.7 39.3C104.3 39.3 101.8 35.5 101.8 27.9C101.8 20.6 104.2 16.3 111.6 16.3C115.7 16.3 118.1 17.6 120 20.1L125.1 15.4C122 10.9 116.5 9.60004 111.4 9.60004C99.9 9.60004 93.8 15.9 93.8 27.9C93.8 39.9 99.3 46.3 111.4 46.3C116.9 46.3 122.4 44.9 125.3 42.8V25.5H111V32.2Z" fill="#6B6C6C"/>
<path d="M27.6 55.6C42.8 55.6 55.2 43.2 55.2 28C55.2 12.7 42.8 0.400024 27.6 0.400024C12.4 0.400024 0 12.7 0 28C0 43.2 12.4 55.6 27.6 55.6Z" fill="#A51B37"/>
<path d="M26.5 15.9V40.1H34.2V37.9H28.7V15.9H26.5Z" fill="white"/>
<path d="M18.8 22.5C20.6 22.5 22.1 21 22.1 19.2C22.1 17.4 20.6 15.9 18.8 15.9C17 15.9 15.5 17.4 15.5 19.2C15.5 21 17 22.5 18.8 22.5Z" fill="white"/>
<path d="M28.7 4.90002C28.4 4.90002 27.9 4.90002 27.6 4.90002C14.9 4.90002 4.5 15.3 4.5 28C4.5 34.2 6.9 40 11.3 44.3C15.7 48.7 21.5 51.1 27.6 51.1C33.8 51.1 39.6 48.7 43.9 44.3C48.3 39.9 50.7 34.1 50.7 28V26.9H49.8H34.2V29.1H48.5V29.4C47.8 40.3 38.7 48.9 27.6 48.9C22 48.9 16.8 46.7 12.8 42.8C8.8 38.8 6.7 33.6 6.7 28C6.7 22.4 8.9 17.1 12.8 13.2C16.8 9.20003 22 7.10004 27.6 7.10004C27.9 7.10004 28.4 7.10004 28.7 7.10004V4.90002V4.90002Z" fill="white"/>
</svg>
