<svg width="370" height="51" viewBox="0 0 370 51" fill="none" xmlns="http://www.w3.org/2000/svg">
<path d="M313.5 0H350.8C362.5 0 366.9 7.9 366.9 14.7C366.9 26.3 356.4 28.4 356.4 28.4L370 50H342.7L336.8 35.6V50H287.2L281.3 35.6V50H257.9V0H295.2C306.9 0 311.3 7.9 311.3 14.7C311.3 26.3 300.8 28.4 300.8 28.4L313.3 48.4V0H313.5ZM127.3 9.5V19H130.7C132.5 19 133.8 17.9 134.4 16.6C134.9 15.6 135.2 13.6 134.4 11.8C133.3 9.6 131.2 9.6 130.7 9.5H127.3ZM103.5 0C103.5 0 137.5 0 143.3 0C154.4 0 157 8.3 157 13.2C157 22 150.9 24.1 150.9 24.1C150.9 24.1 157.5 26.6 157.5 36C157.5 50.6 144.1 50 142.1 50H103.5V0ZM255.7 50V38.5H244.9V29.4H255.6V19.5H244.9V9.89999H255.7V0H220.1V50H255.7ZM192.3 50H217V0H192.3V18.9H184.3V0H159V50H184.3V29H192.3V50ZM101.3 50V38.5H90.5V29.4H101.2V19.5H90.5V9.89999H101.3V0H65.7V50H101.3ZM38.3 0H62.6V50H38.3V0ZM35.9 50V36.2H25.1V0H0V50H35.9ZM281 9.5V21.4H284C287.2 21.4 288.3 19.9 289 18.3C289.6 17 289.9 14.7 289 12.4C288.5 11.1 287.2 9.60001 284 9.60001L281 9.5ZM336.5 9.5V21.4H339.5C342.7 21.4 343.8 19.9 344.5 18.3C345.1 17 345.4 14.7 344.5 12.4C344 11.1 342.7 9.60001 339.4 9.60001L336.5 9.5ZM127.3 29.7V40H130.7C132.5 40 134.3 38.8 135 37.4C135.5 36.3 135.9 34.2 135 32.2C133.8 29.6 131 29.8 130.8 29.8L127.3 29.7Z" fill="black"/>
</svg>
