<svg width="3758" height="1274" viewBox="0 0 3758 1274" fill="none" xmlns="http://www.w3.org/2000/svg">
<path d="M1445.5 693V288H1495.5V568.5L1614 288H1654.5V693H1605V408L1487.5 693H1445.5ZM1762.46 693V330H1693.96V288H1885.46V330H1818.96V693H1762.46ZM2026 697.5C1997.34 697.5 1975 691.5 1959 679.5C1943.34 667.5 1932.34 651.333 1926 631C1920 610.667 1917 588 1917 563V420C1917 392.667 1920 368.833 1926 348.5C1932.34 328.167 1943.34 312.5 1959 301.5C1975 290.167 1997.34 284.5 2026 284.5C2051.34 284.5 2071.34 289.167 2086 298.5C2101 307.833 2111.67 321.167 2118 338.5C2124.67 355.833 2128 376.667 2128 401V433H2074.5V404.5C2074.5 389.5 2073.67 376.333 2072 365C2070.67 353.333 2066.67 344.333 2060 338C2053.34 331.667 2042.17 328.5 2026.5 328.5C2010.5 328.5 1998.84 332 1991.5 339C1984.17 345.667 1979.34 355.333 1977 368C1975 380.333 1974 394.833 1974 411.5V572C1974 592.333 1975.67 608.5 1979 620.5C1982.34 632.167 1987.84 640.5 1995.5 645.5C2003.17 650.5 2013.5 653 2026.5 653C2041.84 653 2052.84 649.667 2059.5 643C2066.17 636 2070.34 626.5 2072 614.5C2073.67 602.5 2074.5 588.5 2074.5 572.5V542.5H2128V572.5C2128 597.167 2125 619 2119 638C2113 656.667 2102.67 671.333 2088 682C2073.34 692.333 2052.67 697.5 2026 697.5ZM2397.59 697.5C2368.92 697.5 2346.59 691.5 2330.59 679.5C2314.92 667.5 2303.92 651.333 2297.59 631C2291.59 610.667 2288.59 588 2288.59 563V420C2288.59 392.667 2291.59 368.833 2297.59 348.5C2303.92 328.167 2314.92 312.5 2330.59 301.5C2346.59 290.167 2368.92 284.5 2397.59 284.5C2422.92 284.5 2442.92 289.167 2457.59 298.5C2472.59 307.833 2483.25 321.167 2489.59 338.5C2496.25 355.833 2499.59 376.667 2499.59 401V433H2446.09V404.5C2446.09 389.5 2445.25 376.333 2443.59 365C2442.25 353.333 2438.25 344.333 2431.59 338C2424.92 331.667 2413.75 328.5 2398.09 328.5C2382.09 328.5 2370.42 332 2363.09 339C2355.75 345.667 2350.92 355.333 2348.59 368C2346.59 380.333 2345.59 394.833 2345.59 411.5V572C2345.59 592.333 2347.25 608.5 2350.59 620.5C2353.92 632.167 2359.42 640.5 2367.09 645.5C2374.75 650.5 2385.09 653 2398.09 653C2413.42 653 2424.42 649.667 2431.09 643C2437.75 636 2441.92 626.5 2443.59 614.5C2445.25 602.5 2446.09 588.5 2446.09 572.5V542.5H2499.59V572.5C2499.59 597.167 2496.59 619 2490.59 638C2484.59 656.667 2474.25 671.333 2459.59 682C2444.92 692.333 2424.25 697.5 2397.59 697.5ZM2553.41 693V288H2710.41V330H2609.91V464H2691.41V504H2609.91V652.5H2711.41V693H2553.41ZM2757.02 693V288H2857.52C2881.86 288 2901.19 292.5 2915.52 301.5C2930.19 310.167 2940.86 322.833 2947.52 339.5C2954.19 356.167 2957.52 376.333 2957.52 400C2957.52 421.333 2953.69 439.833 2946.02 455.5C2938.69 471.167 2927.69 483.333 2913.02 492C2898.36 500.333 2880.02 504.5 2858.02 504.5H2813.52V693H2757.02ZM2813.52 464H2839.52C2855.86 464 2868.69 462.167 2878.02 458.5C2887.36 454.833 2894.02 448.5 2898.02 439.5C2902.02 430.167 2904.02 417.167 2904.02 400.5C2904.02 381.167 2902.52 366.333 2899.52 356C2896.86 345.667 2891.02 338.5 2882.02 334.5C2873.02 330.5 2859.02 328.5 2840.02 328.5H2813.52V464ZM2997.26 693V288H3090.26C3108.59 288 3124.42 290 3137.76 294C3151.42 298 3162.76 304.167 3171.76 312.5C3180.76 320.833 3187.42 331.5 3191.76 344.5C3196.09 357.167 3198.26 372.167 3198.26 389.5C3198.26 406.167 3196.09 420.667 3191.76 433C3187.76 445 3181.42 454.5 3172.76 461.5C3164.42 468.5 3153.59 473 3140.26 475C3156.59 478.667 3169.76 485 3179.76 494C3189.76 502.667 3197.09 514 3201.76 528C3206.76 541.667 3209.26 558.167 3209.26 577.5C3209.26 594.833 3207.26 610.667 3203.26 625C3199.26 639.333 3192.92 651.5 3184.26 661.5C3175.92 671.5 3165.09 679.333 3151.76 685C3138.76 690.333 3123.26 693 3105.26 693H2997.26ZM3053.76 652.5H3091.76C3117.09 652.5 3133.92 646.667 3142.26 635C3150.92 623 3155.26 603.833 3155.26 577.5C3155.26 560.5 3152.92 546.333 3148.26 535C3143.92 523.333 3136.76 514.667 3126.76 509C3117.09 503 3103.92 500 3087.26 500H3053.76V652.5ZM3053.76 457H3087.26C3103.26 457 3115.76 454.833 3124.76 450.5C3133.76 445.833 3140.09 438.5 3143.76 428.5C3147.42 418.5 3149.26 405.5 3149.26 389.5C3149.26 370.833 3146.42 357.333 3140.76 349C3135.09 340.667 3126.26 335.5 3114.26 333.5C3102.26 331.167 3086.59 330 3067.26 330H3053.76V457ZM3259.46 693V288H3309.46V568.5L3427.96 288H3468.46V693H3418.96V408L3301.46 693H3259.46ZM3633.43 697.5C3604.76 697.5 3582.43 691.5 3566.43 679.5C3550.76 667.5 3539.76 651.333 3533.43 631C3527.43 610.667 3524.43 588 3524.43 563V420C3524.43 392.667 3527.43 368.833 3533.43 348.5C3539.76 328.167 3550.76 312.5 3566.43 301.5C3582.43 290.167 3604.76 284.5 3633.43 284.5C3658.76 284.5 3678.76 289.167 3693.43 298.5C3708.43 307.833 3719.09 321.167 3725.43 338.5C3732.09 355.833 3735.43 376.667 3735.43 401V433H3681.93V404.5C3681.93 389.5 3681.09 376.333 3679.43 365C3678.09 353.333 3674.09 344.333 3667.43 338C3660.76 331.667 3649.59 328.5 3633.93 328.5C3617.93 328.5 3606.26 332 3598.93 339C3591.59 345.667 3586.76 355.333 3584.43 368C3582.43 380.333 3581.43 394.833 3581.43 411.5V572C3581.43 592.333 3583.09 608.5 3586.43 620.5C3589.76 632.167 3595.26 640.5 3602.93 645.5C3610.59 650.5 3620.93 653 3633.93 653C3649.26 653 3660.26 649.667 3666.93 643C3673.59 636 3677.76 626.5 3679.43 614.5C3681.09 602.5 3681.93 588.5 3681.93 572.5V542.5H3735.43V572.5C3735.43 597.167 3732.43 619 3726.43 638C3720.43 656.667 3710.09 671.333 3695.43 682C3680.76 692.333 3660.09 697.5 3633.43 697.5Z" fill="white"/>
<rect y="637" width="900" height="900" transform="rotate(-45 0 637)" fill="#002F55"/>
<rect x="35" y="637.041" width="850" height="850" transform="rotate(-45 35 637.041)" fill="#326DCD"/>
<g clip-path="url(#clip0)">
<path d="M606.566 583.586L412.138 778.013C404.906 785.244 401.288 793.906 401.288 803.994C401.288 814.274 404.905 822.836 412.138 829.694L442.4 860.529C449.826 867.572 458.486 871.09 468.381 871.09C478.47 871.09 487.035 867.572 494.078 860.529L688.787 665.814C670.14 658.388 653.631 647.492 639.255 633.123C624.887 618.751 613.992 602.239 606.566 583.586ZM499.504 798.57C495.883 802.184 491.601 803.995 486.654 803.995C481.705 803.995 477.423 802.184 473.807 798.57C470.19 794.953 468.381 790.672 468.381 785.723C468.381 780.779 470.19 776.491 473.807 772.869C477.423 769.259 481.702 767.448 486.654 767.448C491.604 767.448 495.887 769.259 499.504 772.869C503.119 776.49 504.928 780.778 504.928 785.723C504.928 790.671 503.119 794.953 499.504 798.57Z" fill="white"/>
<path d="M867.379 534.477C865.761 532.571 863.523 531.621 860.672 531.621C858.961 531.621 852.253 535.002 840.543 541.759C828.839 548.514 815.94 556.221 801.858 564.883C787.769 573.546 780.251 578.161 779.302 578.733L724.196 548.183V484.229L807.847 435.975C810.892 433.882 812.415 431.217 812.415 427.981C812.415 424.747 810.892 422.083 807.847 419.989C799.469 414.277 789.237 409.851 777.157 406.711C765.07 403.571 753.504 402 742.467 402C707.256 402 677.135 414.518 652.109 439.546C627.074 464.572 614.565 494.695 614.565 529.906C614.565 565.118 627.081 595.24 652.109 620.268C677.135 645.294 707.256 657.812 742.467 657.812C769.307 657.812 793.909 649.859 816.273 633.97C838.633 618.077 854.294 597.378 863.239 571.873C867.613 559.122 869.802 549.032 869.802 541.611C869.809 538.763 868.994 536.383 867.379 534.477Z" fill="white"/>
</g>
<path d="M1427.61 969V794.04H1471.02C1481.54 794.04 1489.89 795.984 1496.08 799.872C1502.42 803.616 1507.02 809.088 1509.9 816.288C1512.78 823.488 1514.22 832.2 1514.22 842.424C1514.22 851.64 1512.57 859.632 1509.26 866.4C1506.09 873.168 1501.34 878.424 1495 882.168C1488.66 885.768 1480.74 887.568 1471.24 887.568H1452.02V969H1427.61ZM1452.02 870.072H1463.25C1470.3 870.072 1475.85 869.28 1479.88 867.696C1483.91 866.112 1486.79 863.376 1488.52 859.488C1490.25 855.456 1491.11 849.84 1491.11 842.64C1491.11 834.288 1490.46 827.88 1489.17 823.416C1488.02 818.952 1485.5 815.856 1481.61 814.128C1477.72 812.4 1471.67 811.536 1463.46 811.536H1452.02V870.072ZM1531.39 969V794.04H1599.21V812.184H1555.8V870.072H1591.01V887.352H1555.8V951.504H1599.65V969H1531.39ZM1618.92 969L1622.16 794.04H1646.13L1677.02 935.952L1708.13 794.04H1731.89L1735.13 969H1715.47L1713.53 841.992L1683.93 969H1670.11L1640.73 841.992L1638.79 969H1618.92ZM1806.66 970.944C1794.85 970.944 1785.42 968.64 1778.36 964.032C1771.3 959.424 1766.26 952.872 1763.24 944.376C1760.22 935.736 1758.7 925.656 1758.7 914.136V847.824C1758.7 836.304 1760.22 826.44 1763.24 818.232C1766.41 809.88 1771.45 803.544 1778.36 799.224C1785.42 794.76 1794.85 792.528 1806.66 792.528C1818.46 792.528 1827.82 794.76 1834.74 799.224C1841.65 803.688 1846.62 810.024 1849.64 818.232C1852.81 826.44 1854.39 836.304 1854.39 847.824V914.352C1854.39 925.728 1852.81 935.664 1849.64 944.16C1846.62 952.656 1841.65 959.28 1834.74 964.032C1827.82 968.64 1818.46 970.944 1806.66 970.944ZM1806.66 951.72C1813.14 951.72 1818.03 950.424 1821.34 947.832C1824.66 945.096 1826.89 941.352 1828.04 936.6C1829.19 931.704 1829.77 926.016 1829.77 919.536V842.856C1829.77 836.376 1829.19 830.832 1828.04 826.224C1826.89 821.472 1824.66 817.872 1821.34 815.424C1818.03 812.832 1813.14 811.536 1806.66 811.536C1800.18 811.536 1795.21 812.832 1791.75 815.424C1788.44 817.872 1786.21 821.472 1785.06 826.224C1783.9 830.832 1783.33 836.376 1783.33 842.856V919.536C1783.33 926.016 1783.9 931.704 1785.06 936.6C1786.21 941.352 1788.44 945.096 1791.75 947.832C1795.21 950.424 1800.18 951.72 1806.66 951.72ZM1878.38 969V794.04H1902.79V869.64H1947.72V794.04H1972.13V969H1947.72V887.136H1902.79V969H1878.38ZM2018.68 969V812.184H1989.09V794.04H2071.82V812.184H2043.09V969H2018.68ZM2138.05 969V794.04H2213.21V811.752H2162.45V866.832H2167.85C2180.53 866.832 2190.97 868.344 2199.17 871.368C2207.53 874.248 2213.72 879.36 2217.75 886.704C2221.93 894.048 2224.01 904.416 2224.01 917.808C2224.01 926.88 2222.93 934.656 2220.77 941.136C2218.61 947.472 2215.23 952.728 2210.62 956.904C2206.16 961.08 2200.47 964.176 2193.56 966.192C2186.79 968.064 2178.65 969 2169.15 969H2138.05ZM2162.45 951.504H2169.37C2176.57 951.504 2182.47 950.712 2187.08 949.128C2191.83 947.4 2195.29 944.088 2197.45 939.192C2199.75 934.296 2200.9 927.096 2200.9 917.592C2200.9 905.64 2198.6 897.144 2193.99 892.104C2189.53 887.064 2181.1 884.544 2168.72 884.544H2162.45V951.504ZM2244.78 969V794.04H2269.19V866.832H2276.1C2288.77 866.832 2299.21 868.344 2307.42 871.368C2315.63 874.248 2321.75 879.36 2325.78 886.704C2329.96 894.048 2332.04 904.416 2332.04 917.808C2332.04 926.88 2330.96 934.656 2328.8 941.136C2326.64 947.472 2323.26 952.728 2318.65 956.904C2314.19 961.08 2308.5 964.176 2301.59 966.192C2294.82 968.064 2286.68 969 2277.18 969H2244.78ZM2269.19 951.504H2277.18C2284.52 951.504 2290.5 950.712 2295.11 949.128C2299.86 947.4 2303.39 944.088 2305.69 939.192C2308 934.296 2309.15 927.096 2309.15 917.592C2309.15 905.64 2306.84 897.144 2302.24 892.104C2297.63 887.064 2289.13 884.544 2276.75 884.544H2269.19V951.504ZM2350.19 969V794.04H2374.6V969H2350.19ZM2421.15 969V812.184H2391.56V794.04H2474.29V812.184H2445.56V969H2421.15ZM2535.87 970.944C2524.06 970.944 2514.63 968.64 2507.57 964.032C2500.51 959.424 2495.47 952.872 2492.45 944.376C2489.43 935.736 2487.91 925.656 2487.91 914.136V847.824C2487.91 836.304 2489.43 826.44 2492.45 818.232C2495.62 809.88 2500.66 803.544 2507.57 799.224C2514.63 794.76 2524.06 792.528 2535.87 792.528C2547.67 792.528 2557.03 794.76 2563.95 799.224C2570.86 803.688 2575.83 810.024 2578.85 818.232C2582.02 826.44 2583.6 836.304 2583.6 847.824V914.352C2583.6 925.728 2582.02 935.664 2578.85 944.16C2575.83 952.656 2570.86 959.28 2563.95 964.032C2557.03 968.64 2547.67 970.944 2535.87 970.944ZM2535.87 951.72C2542.35 951.72 2547.24 950.424 2550.55 947.832C2553.87 945.096 2556.1 941.352 2557.25 936.6C2558.4 931.704 2558.98 926.016 2558.98 919.536V842.856C2558.98 836.376 2558.4 830.832 2557.25 826.224C2556.1 821.472 2553.87 817.872 2550.55 815.424C2547.24 812.832 2542.35 811.536 2535.87 811.536C2529.39 811.536 2524.42 812.832 2520.96 815.424C2517.65 817.872 2515.42 821.472 2514.27 826.224C2513.11 830.832 2512.54 836.376 2512.54 842.856V919.536C2512.54 926.016 2513.11 931.704 2514.27 936.6C2515.42 941.352 2517.65 945.096 2520.96 947.832C2524.42 950.424 2529.39 951.72 2535.87 951.72ZM2607.59 969V794.04H2647.77C2655.69 794.04 2662.53 794.904 2668.29 796.632C2674.19 798.36 2679.09 801.024 2682.98 804.624C2686.86 808.224 2689.74 812.832 2691.62 818.448C2693.49 823.92 2694.42 830.4 2694.42 837.888C2694.42 845.088 2693.49 851.352 2691.62 856.68C2689.89 861.864 2687.15 865.968 2683.41 868.992C2679.81 872.016 2675.13 873.96 2669.37 874.824C2676.42 876.408 2682.11 879.144 2686.43 883.032C2690.75 886.776 2693.92 891.672 2695.94 897.72C2698.1 903.624 2699.18 910.752 2699.18 919.104C2699.18 926.592 2698.31 933.432 2696.58 939.624C2694.86 945.816 2692.12 951.072 2688.38 955.392C2684.78 959.712 2680.1 963.096 2674.34 965.544C2668.72 967.848 2662.02 969 2654.25 969H2607.59ZM2632 951.504H2648.42C2659.36 951.504 2666.63 948.984 2670.23 943.944C2673.98 938.76 2675.85 930.48 2675.85 919.104C2675.85 911.76 2674.84 905.64 2672.82 900.744C2670.95 895.704 2667.86 891.96 2663.54 889.512C2659.36 886.92 2653.67 885.624 2646.47 885.624H2632V951.504ZM2632 867.048H2646.47C2653.38 867.048 2658.78 866.112 2662.67 864.24C2666.56 862.224 2669.3 859.056 2670.88 854.736C2672.46 850.416 2673.26 844.8 2673.26 837.888C2673.26 829.824 2672.03 823.992 2669.58 820.392C2667.14 816.792 2663.32 814.56 2658.14 813.696C2652.95 812.688 2646.18 812.184 2637.83 812.184H2632V867.048ZM2765.58 970.944C2753.77 970.944 2744.34 968.64 2737.28 964.032C2730.23 959.424 2725.19 952.872 2722.16 944.376C2719.14 935.736 2717.63 925.656 2717.63 914.136V847.824C2717.63 836.304 2719.14 826.44 2722.16 818.232C2725.33 809.88 2730.37 803.544 2737.28 799.224C2744.34 794.76 2753.77 792.528 2765.58 792.528C2777.39 792.528 2786.75 794.76 2793.66 799.224C2800.57 803.688 2805.54 810.024 2808.56 818.232C2811.73 826.44 2813.31 836.304 2813.31 847.824V914.352C2813.31 925.728 2811.73 935.664 2808.56 944.16C2805.54 952.656 2800.57 959.28 2793.66 964.032C2786.75 968.64 2777.39 970.944 2765.58 970.944ZM2765.58 951.72C2772.06 951.72 2776.95 950.424 2780.27 947.832C2783.58 945.096 2785.81 941.352 2786.96 936.6C2788.11 931.704 2788.69 926.016 2788.69 919.536V842.856C2788.69 836.376 2788.11 830.832 2786.96 826.224C2785.81 821.472 2783.58 817.872 2780.27 815.424C2776.95 812.832 2772.06 811.536 2765.58 811.536C2759.1 811.536 2754.13 812.832 2750.67 815.424C2747.36 817.872 2745.13 821.472 2743.98 826.224C2742.83 830.832 2742.25 836.376 2742.25 842.856V919.536C2742.25 926.016 2742.83 931.704 2743.98 936.6C2745.13 941.352 2747.36 945.096 2750.67 947.832C2754.13 950.424 2759.1 951.72 2765.58 951.72ZM2837.3 969V794.04H2858.9V915.216L2910.1 794.04H2927.59V969H2906.21V845.88L2855.45 969H2837.3ZM2884.61 780.432C2874.24 780.432 2866.9 777.624 2862.58 772.008C2858.4 766.392 2856.31 759.408 2856.31 751.056H2869.7C2869.85 756.24 2871 760.272 2873.16 763.152C2875.46 765.888 2879.28 767.256 2884.61 767.256C2890.08 767.256 2893.9 765.816 2896.06 762.936C2898.36 760.056 2899.51 756.096 2899.51 751.056H2913.12C2913.12 759.408 2910.96 766.392 2906.64 772.008C2902.46 777.624 2895.12 780.432 2884.61 780.432ZM3023.59 969V812.184H2994V794.04H3076.73V812.184H3048V969H3023.59ZM3093.59 969V794.04H3161.42V812.184H3118V870.072H3153.21V887.352H3118V951.504H3161.85V969H3093.59ZM3170.75 969L3207.26 877.416L3171.4 794.04H3194.08L3220.65 855.816L3244.84 794.04H3267.52L3230.8 879.36L3269.25 969H3246.57L3218.06 903.12L3193.43 969H3170.75ZM3285.76 969V794.04H3310.16V869.64H3355.09V794.04H3379.5V969H3355.09V887.136H3310.16V969H3285.76ZM3406.83 969V794.04H3428.43V915.216L3479.63 794.04H3497.12V969H3475.74V845.88L3424.98 969H3406.83ZM3524.54 969V794.04H3548.95V871.8H3558.02L3589.34 794.04H3613.75L3579.19 877.2L3618.07 969H3593.66L3558.23 883.68H3548.95V969H3524.54ZM3634.23 969V794.04H3655.83V915.216L3707.02 794.04H3724.51V969H3703.13V845.88L3652.37 969H3634.23Z" fill="#EEEEEE"/>
<defs>
<clipPath id="clip0">
<rect width="469.09" height="469.089" fill="white" transform="translate(401 402)"/>
</clipPath>
</defs>
</svg>
