<svg width="366" height="142" viewBox="0 0 366 142" fill="none" xmlns="http://www.w3.org/2000/svg">
<path d="M168 69.5V119.9H179.9V69.5H168V69.5ZM146.7 50.3H134.5C133.1 50.3 133.4 51.5 133.4 51.5C133.6 53.1 134 55.7 134 61.1C134 73.1 132.5 90.3 119.4 106.7L118.5 107.8C118.5 107.8 110.6 52.6 110.5 51.6C110.5 51.6 110.5 50.4 109.4 50.4H97.1C96 50.4 96 51.6 96 51.6C95.7 57.9 92.2 111.1 53.4 119.6C61.7 120.5 71.6 117.9 80.3 112.6C91 105.9 98.3 96.1 100.6 84.8C100.6 84.8 105.3 114.4 105.9 121.2V121.7L105.6 121.9C94.7 127.7 82.4 130.8 70.1 130.8C39.6 130.8 12.6 112.7 0.699997 85.1C7.7 117.5 36.6 141.2 70.4 141.2C109.9 141.2 133.4 108.2 137.4 84.7C137.4 84.7 142.7 119 142.8 120.1H159C158.8 118.6 148 52.8 147.9 51.8C147.9 51.8 147.9 50.6 146.8 50.6V50.3H146.7ZM10 79.1C10 42.9 40.5 13.5 77.9 13.5C101.1 13.5 122.7 25.1 135.2 44C126 18.2 100.5 0.599976 71.9 0.599976C34.9 0.599976 4.9 29.4 4.9 64.8C4.9 74.5 7.3 84 11.7 92.7C10.7 88.3 10 83.7 10 79.1V79.1V79.1ZM293.3 76.8C289 71.8 283 69.2 275.8 69.2C268.5 69.2 262.2 71.6 257.3 76.3C252.4 80.9 250 87.2 250 94.8C250 102.4 252.4 108.5 257.1 113C261.8 117.5 268.7 119.8 277.3 119.8C294 119.8 297.6 108.3 299 104.5L294.7 103.1C290.9 110.1 282.3 110.6 277.2 110.2C273.6 110 270.3 108.7 267.7 106.9C265.1 105 263.3 102.3 262.5 98.1L262.3 96.5H299.8C299.7 88.2 297.5 81.6 293.4 76.7V76.8H293.3ZM263.1 89.5C262.5 89.5 262.5 88.9 262.5 88.7C263 85.8 264.1 83.5 266.1 81.5C268.4 79.1 271.9 77.8 275.6 77.8C279 77.8 281.7 78.8 284.1 80.7C286 82.4 287.4 84.8 288.2 88C288.3 88.3 288.5 89.4 287.6 89.4H263.1V89.5ZM331 69C316.8 69 311.7 77.7 310.1 81.8L309.5 83.3L314.2 84.9C314.2 84.9 317.3 76.1 329.3 76.6C341.5 77.1 340 87.1 340 88.7C333.2 86.7 323.6 86.9 317.3 89.7C309.4 93.3 308.1 100.6 308.5 105.9C308.8 113.8 315.8 119.4 324.9 119.8C333 120.3 336.7 118.4 340 115.2L339.9 119.8H350.6V106.6V90.3V87.5V85C350.8 79 346.6 68.8 330.8 68.8V69H331ZM340.1 108.1C340.1 108.9 339.9 109.5 339.2 109.8C337.2 110.8 332.9 112.2 327.6 111.8C322.1 111.3 319.9 107.4 319.6 105.7C319.5 105 318.2 97.7 325.4 95.4C330 93.9 335.9 94.8 339.1 95.7C340 95.9 340.2 96.5 340.2 97.6V108.1V108.1H340.1ZM179.1 50.3H169.3C167.8 50.3 168.1 51.8 168.1 51.8C168.1 53.4 168.1 60.8 168.1 62.4H180.2V51.7C180.2 51.7 180.3 50.5 179.1 50.5V50.3ZM239.5 50.3H229.4C228.4 50.3 228.4 51.4 228.4 51.4V72.1L226.9 71.3C225.3 70.5 223.7 69.9 222 69.6C220.3 69.3 218.3 69.1 216 69.1C208.1 69.1 201.6 71.4 196.9 76C192.3 80.5 189.8 87.1 189.8 95.1C189.8 102.2 191.8 108.2 195.8 113C199.8 117.6 205.5 120 213.1 120C224 120 228.2 113.4 228.2 113.4V119.7H240.4V108C240.4 94.7 240.4 51.6 240.4 51.6C240.4 51.6 240.5 50.3 239.5 50.3ZM227.7 106.2C226.6 107.2 225.1 108 223.3 108.7C221.4 109.5 219.1 109.8 216.6 109.8C212.5 109.8 209.3 108.4 206.9 105.7C204.5 103 203.4 99 203.4 93.7C203.4 88.5 204.5 84.7 206.7 82.3C209 79.8 212.4 78.6 216.9 78.6C219.3 78.6 221.5 78.9 223.6 79.7C225.4 80.4 226.8 81.1 227.8 82C228.1 82.3 228.5 82.9 228.5 83.7V104.4C228.5 105.2 228.2 105.8 227.8 106.1V106.2H227.7Z" fill="#00B0F0"/>
<path d="M358.2 41.9C354 41.9 350.9 45.1 350.9 49.2C350.9 53.3 354.1 56.5 358.2 56.5C362.3 56.5 365.5 53.3 365.5 49.2C365.5 45.2 362.3 41.9 358.2 41.9ZM358.2 43C361.7 43 364.4 45.8 364.4 49.3C364.4 52.8 361.8 55.6 358.2 55.6C354.7 55.6 352 52.8 352 49.3C351.9 45.8 354.5 43 358.2 43ZM356.6 49.7H358.4L360.8 53.4H362L359.5 49.7C360.6 49.5 361.6 48.8 361.6 47.3C361.6 45.8 360.8 44.9 358.9 44.9H355.6V53.4H356.6V49.7ZM356.6 48.8V45.9H358.5C359.5 45.9 360.5 46.1 360.5 47.4C360.5 48.9 359.3 48.9 358 48.9H356.6V48.8Z" fill="#00B0F0"/>
</svg>
