<svg width="361" height="106" viewBox="0 0 361 106" fill="none" xmlns="http://www.w3.org/2000/svg">
<path d="M41.0455 104.81H0.845581L20.9456 70.0104H61.1455" fill="#D40000"/>
<path d="M81.1455 104.81H121.246L101.146 70.0104H61.0455" fill="#D40000"/>
<path d="M81.1455 35.2103L61.0455 0.410278L40.9456 35.2103L61.0455 70.0104" fill="#D40000"/>
<path d="M139.346 90.0104H155.446V84.2103H139.346V77.0104H157.446V71.2103H132.546V104.91H157.946V99.1104H139.346" fill="black"/>
<path d="M138.946 40.5104L146.046 65.5104H152.646L159.746 40.5104V65.5104H166.146V31.9103H156.346L149.346 55.5104L142.346 31.9103H132.546V65.5104H138.946" fill="black"/>
<path d="M286.946 65.5104H293.746V31.9103H286.946V65.5104Z" fill="black"/>
<path d="M292.546 104.81H299.346V71.1104H292.546V104.81Z" fill="black"/>
<path d="M354.046 65.5104H360.846V31.9103H354.046V65.5104Z" fill="black"/>
<path d="M168.746 65.5104H175.546V31.9103H168.746V65.5104Z" fill="black"/>
<path d="M344.646 45.0104H331.146V31.9103H324.446V65.5104H331.146V50.8103H344.646V65.5104H351.246V31.9103H344.646" fill="black"/>
<path d="M185.646 65.5104H192.546V37.7103H200.746V31.9103H177.446V37.7103H185.746" fill="black"/>
<path d="M247.346 104.81H254.246V77.0104H262.546V71.2103H239.246V77.0104H247.446" fill="black"/>
<path d="M242.846 66.5104C251.446 66.5104 256.246 62.6104 256.246 55.0104V31.9103H249.446V55.7103C249.446 58.6103 247.046 61.0104 242.846 61.0104C237.646 61.0104 236.146 58.1103 236.146 55.7103V31.9103H229.546V55.0104C229.546 63.1104 234.546 66.5104 242.846 66.5104Z" fill="black"/>
<path d="M191.546 90.0104H207.546V84.2103H191.546V77.0104H209.546V71.2103H184.746V104.91H210.146V99.1104H191.546" fill="black"/>
<path d="M273.846 37.2103C275.646 37.2103 277.746 38.9103 277.746 41.2103C277.746 43.2103 276.246 45.4103 273.346 45.4103H265.246V37.2103H273.846ZM273.246 60.5104H265.246V50.7103H273.146C276.046 50.7103 278.346 52.3104 278.346 55.6104C278.346 58.3104 276.246 60.5104 273.246 60.5104ZM265.546 65.5104H275.346C281.746 65.5104 285.446 61.7103 285.446 56.4103C285.446 52.1103 282.346 48.5104 278.946 47.6104C281.946 46.9104 284.246 43.8104 284.246 40.1104C284.246 35.1104 280.646 31.8103 273.846 31.8103H258.646V65.4103" fill="black"/>
<path d="M271.046 86.1104V76.9103H279.246C282.046 76.9103 283.846 78.8104 283.846 81.5104C283.846 83.4104 282.246 86.1104 279.446 86.1104H271.046V86.1104ZM284.546 88.7103C287.446 87.8103 290.446 85.2104 290.446 80.6104C290.446 74.6104 286.446 71.2103 279.546 71.2103H264.146V104.81H271.046V91.5104H276.746C280.246 91.5104 282.146 93.3103 282.646 95.7103C283.246 98.3103 283.146 102.31 283.846 104.71H290.746C290.146 102.11 289.646 98.6103 289.446 95.9103C289.346 91.4103 286.846 89.5103 284.546 88.7103Z" fill="black"/>
<path d="M166.946 71.1104H160.146V104.81H182.746V99.0104H166.946" fill="black"/>
<path d="M212.146 51.3103C217.546 52.2103 220.646 53.3104 220.646 56.5104C220.646 58.7104 218.546 60.8103 213.946 60.8103C209.346 60.8103 207.046 58.2103 207.046 55.2103H200.546C200.546 61.1103 204.346 66.4103 214.246 66.4103C223.546 66.4103 227.746 61.4103 227.746 55.7103C227.746 50.4103 224.246 47.0103 218.046 45.8103C212.046 44.6103 207.946 44.4104 207.946 40.6104C207.946 38.0104 210.246 36.5104 213.946 36.5104C217.746 36.5104 220.046 38.4104 220.046 41.6104H226.646C226.646 36.3104 222.646 30.8103 213.746 30.8103C207.546 30.8103 201.246 34.4104 201.246 41.0104C201.246 46.7104 205.246 50.1103 212.146 51.3103Z" fill="black"/>
<path d="M306.946 51.3103C312.446 52.2103 315.546 53.3104 315.546 56.5104C315.546 58.7104 313.346 60.8103 308.846 60.8103C304.246 60.8103 301.946 58.2103 301.946 55.2103H295.446C295.446 61.1103 299.146 66.4103 309.146 66.4103C318.446 66.4103 322.646 61.4103 322.646 55.7103C322.646 50.4103 319.146 47.0103 312.846 45.8103C306.946 44.6103 302.746 44.4104 302.746 40.6104C302.746 38.0104 305.146 36.5104 308.846 36.5104C312.746 36.5104 315.046 38.4104 315.046 41.6104H321.646C321.646 36.3104 317.646 30.8103 308.746 30.8103C302.546 30.8103 296.146 34.4104 296.146 41.0104C296.046 46.7104 300.146 50.1103 306.946 51.3103Z" fill="black"/>
<path d="M225.446 99.6104C220.046 99.6104 216.846 94.2103 216.846 87.8103C216.846 81.4103 219.946 76.0104 225.446 76.0104C229.646 76.0104 231.846 78.6103 232.646 81.8103H239.746C238.546 75.2103 233.446 70.3103 225.346 70.3103C215.046 70.3103 209.746 78.2103 209.746 87.9103C209.746 97.6103 215.246 105.51 225.346 105.51C233.446 105.51 238.846 100.81 239.746 93.6104H232.646C231.746 97.0104 229.546 99.6104 225.446 99.6104Z" fill="black"/>
<path d="M316.746 99.6104C311.246 99.6104 308.046 94.2103 308.046 87.8103C308.046 81.4103 311.146 76.0104 316.746 76.0104C320.846 76.0104 323.046 78.6103 323.946 81.8103H330.946C329.746 75.2103 324.646 70.3103 316.546 70.3103C306.246 70.3103 301.046 78.2103 301.046 87.9103C301.046 97.6103 306.446 105.51 316.546 105.51C324.646 105.51 330.046 100.81 331.046 93.6104H323.946C322.946 97.0104 320.746 99.6104 316.746 99.6104Z" fill="black"/>
</svg>
