<svg width="130" height="50" viewBox="0 0 130 50" fill="none" xmlns="http://www.w3.org/2000/svg">
<path d="M31.8448 37.9569L35.6293 41.7328C33.8554 42.8694 31.9089 43.7108 29.8655 44.2241C29.2308 44.3746 28.7354 44.8704 28.5853 45.5052L27.7328 49.3276C27.6445 49.719 27.2978 49.9978 26.8966 50H23.1034C22.7012 49.999 22.3531 49.72 22.2647 49.3276L21.4172 45.5172C21.2858 44.8954 20.8153 44.4006 20.2009 44.2379C18.292 43.7623 16.4648 43.0049 14.7793 41.9905C14.2366 41.6733 13.5612 41.6897 13.0345 42.0328L9.74138 44.1379C9.40022 44.3559 8.95334 44.3071 8.66724 44.0207L5.98276 41.3362C5.69338 41.0504 5.64308 40.6013 5.86207 40.2586L7.96293 36.9621C8.30602 36.4353 8.32237 35.76 8.00517 35.2172C6.99082 33.5318 6.23336 31.7045 5.75776 29.7957C5.5947 29.1838 5.10205 28.7151 4.48276 28.5828L0.67069 27.7319C0.278992 27.645 0.000179888 27.2978 0 26.8966V23.1034C9e-05 22.7025 0.278473 22.3553 0.669828 22.2681L4.48276 21.4172C5.10461 21.2858 5.59942 20.8153 5.76207 20.2009C6.23767 18.292 6.99513 16.4648 8.00948 14.7793C8.32668 14.2366 8.31033 13.5612 7.96724 13.0345L5.86207 9.73276C5.64666 9.39443 5.69503 8.9519 5.97845 8.6681L8.6681 5.97845C8.9519 5.69503 9.39443 5.64666 9.73276 5.86207L13.0345 7.96638C13.5612 8.30947 14.2366 8.32582 14.7793 8.00862C16.4648 6.99426 18.292 6.2368 20.2009 5.76121C20.8151 5.5987 21.2855 5.10428 21.4172 4.48276L22.2672 0.672414C22.3555 0.280978 22.7022 0.00220828 23.1034 0H26.8966C27.2975 9e-05 27.6447 0.278473 27.7319 0.669828L28.5828 4.48276C28.7142 5.10461 29.1847 5.59942 29.7991 5.76207C31.708 6.23767 33.5352 6.99513 35.2207 8.00948C35.7634 8.32668 36.4388 8.31033 36.9655 7.96724L40.2586 5.86207C40.5998 5.64408 41.0467 5.69285 41.3328 5.97931L44.0138 8.66034C44.3061 8.94575 44.3579 9.39714 44.1379 9.74138L42.0336 13.0345C41.6905 13.5612 41.6742 14.2366 41.9914 14.7793C43.0057 16.4648 43.7632 18.292 44.2388 20.2009C44.4013 20.8151 44.8957 21.2855 45.5172 21.4172L49.3267 22.2672C49.7185 22.3552 49.9977 22.7019 50 23.1034V26.8966C49.9999 27.2975 49.7215 27.6447 49.3302 27.7319L45.5043 28.5853C44.869 28.7347 44.3731 29.231 44.2241 29.8664C43.7061 31.9133 42.862 33.8636 41.7241 35.6422L37.9483 31.8664" fill="#326DCD"/>
<path d="M37.9482 31.8706C41.3506 25.466 39.5569 17.536 33.7293 13.2191C27.9018 8.9022 19.7932 9.49687 14.6578 14.6178C9.52243 19.7386 8.90483 27.8455 13.2052 33.6852C17.5056 39.525 25.4305 41.3411 31.8447 37.9568" fill="#003399"/>
<path d="M9.48242 25C9.48299 18.5444 13.4803 12.7635 19.52 10.4838C25.5597 8.20413 32.3799 9.90193 36.6459 14.7471C40.912 19.5923 41.7326 26.5725 38.7066 32.275C38.4785 32.6857 37.9635 32.8381 37.5485 32.6177C37.1336 32.3974 36.9716 31.8853 37.1841 31.4663C40.3863 25.4386 38.6983 17.9754 33.214 13.9123C27.7296 9.84924 20.0982 10.4084 15.2647 15.2275C10.4311 20.0466 9.849 27.6762 13.8956 33.1727C17.9421 38.6693 25.4003 40.3797 31.4376 37.1957C31.7102 37.0442 32.0433 37.0519 32.3087 37.2156C32.5741 37.3793 32.7304 37.6736 32.7175 37.9851C32.7045 38.2967 32.5243 38.577 32.2462 38.7181C27.4358 41.2462 21.654 41.0771 16.9996 38.2722C12.3451 35.4672 9.4945 30.4342 9.48242 25Z" fill="#0047AB"/>
<path d="M46.9739 40.8964L34.017 27.9395C35.0737 24.6819 34.2917 21.1077 31.9714 18.5888C29.651 16.07 26.1528 14.998 22.8196 15.7843C22.6633 15.8152 22.5367 15.9297 22.4904 16.0823C22.4442 16.2348 22.486 16.4004 22.5989 16.5128L27.7584 21.6688C27.8628 21.773 27.9067 21.9232 27.8748 22.0671L26.8817 26.5671C26.8453 26.7309 26.7172 26.8587 26.5532 26.8947L22.061 27.88C21.9178 27.9115 21.7684 27.868 21.6644 27.7645L16.5007 22.6085C16.3881 22.4955 16.2224 22.4539 16.0698 22.5003C15.9173 22.5467 15.8028 22.6735 15.7722 22.83C14.9845 26.1606 16.054 29.6571 18.57 31.9772C21.0861 34.2973 24.6577 35.0803 27.9136 34.0257C37.68 43.793 29.2429 35.3447 40.8877 46.9912C42.5893 48.5552 45.2215 48.4988 46.8545 46.8634C48.4876 45.2281 48.5403 42.5958 46.9739 40.8964ZM43.9653 45.6895C43.0131 45.6895 42.2412 44.9176 42.2412 43.9654C42.2412 43.0132 43.0131 42.2412 43.9653 42.2412C44.9175 42.2412 45.6894 43.0132 45.6894 43.9654C45.6866 44.9164 44.9163 45.6867 43.9653 45.6895Z" fill="white"/>
<path d="M25.8616 6.8965H24.1375C23.6614 6.8965 23.2754 6.51054 23.2754 6.03443C23.2754 5.55832 23.6614 5.17236 24.1375 5.17236H25.8616C26.3377 5.17236 26.7237 5.55832 26.7237 6.03443C26.7237 6.51054 26.3377 6.8965 25.8616 6.8965Z" fill="#326DCD"/>
<path d="M25.8616 44.8277H24.1375C23.6614 44.8277 23.2754 44.4417 23.2754 43.9656C23.2754 43.4895 23.6614 43.1035 24.1375 43.1035H25.8616C26.3377 43.1035 26.7237 43.4895 26.7237 43.9656C26.7237 44.4417 26.3377 44.8277 25.8616 44.8277Z" fill="#326DCD"/>
<path d="M10.9791 13.0613C10.6305 13.0612 10.3162 12.8512 10.1828 12.5291C10.0494 12.207 10.1231 11.8363 10.3696 11.5898L11.5894 10.3699C11.9277 10.0432 12.4654 10.0479 12.7979 10.3804C13.1304 10.713 13.1351 11.2506 12.8084 11.5889C11.4825 12.9148 11.4334 13.0613 10.9791 13.0613Z" fill="#326DCD"/>
<path d="M6.03492 26.7242C5.55881 26.7242 5.17285 26.3382 5.17285 25.8621V24.1379C5.17285 23.6618 5.55881 23.2759 6.03492 23.2759C6.51103 23.2759 6.89699 23.6618 6.89699 24.1379V25.8621C6.89699 26.3382 6.51103 26.7242 6.03492 26.7242Z" fill="#326DCD"/>
<path d="M43.9656 26.7242C43.4895 26.7242 43.1035 26.3382 43.1035 25.8621V24.1379C43.1035 23.6618 43.4895 23.2759 43.9656 23.2759C44.4417 23.2759 44.8277 23.6618 44.8277 24.1379V25.8621C44.8277 26.3382 44.4417 26.7242 43.9656 26.7242Z" fill="#326DCD"/>
<path d="M12.1992 39.8826C11.9706 39.8825 11.7514 39.7917 11.5898 39.63L10.3699 38.4102C10.0432 38.0719 10.0479 37.5342 10.3804 37.2017C10.713 36.8692 11.2506 36.8645 11.5889 37.1912L12.8087 38.411C13.0552 38.6576 13.1289 39.0283 12.9955 39.3504C12.8621 39.6725 12.5479 39.8825 12.1992 39.8826Z" fill="#326DCD"/>
<path d="M39.0205 13.0613C38.7919 13.0613 38.5727 12.9704 38.411 12.8087L37.1912 11.5889C36.8645 11.2506 36.8692 10.713 37.2017 10.3804C37.5342 10.0479 38.0719 10.0432 38.4102 10.3699L39.63 11.5898C39.8765 11.8363 39.9502 12.207 39.8168 12.5291C39.6834 12.8512 39.3691 13.0612 39.0205 13.0613Z" fill="#326DCD"/>
<path d="M40.5169 41.3794C40.2882 41.3794 40.069 41.2885 39.9074 41.1268L30.4246 31.6441C30.0979 31.3058 30.1026 30.7681 30.4351 30.4356C30.7676 30.1031 31.3053 30.0984 31.6436 30.4251L41.1263 39.9079C41.3728 40.1544 41.4465 40.5251 41.3131 40.8472C41.1797 41.1693 40.8655 41.3793 40.5169 41.3794Z" fill="#CDCDCD"/>
<path d="M58.945 26V13.85H60.445V22.265L64 13.85H65.215V26H63.73V17.45L60.205 26H58.945ZM68.4538 26V15.11H66.3988V13.85H72.1438V15.11H70.1488V26H68.4538ZM76.3601 26.135C75.5001 26.135 74.8301 25.955 74.3501 25.595C73.8801 25.235 73.5501 24.75 73.3601 24.14C73.1801 23.53 73.0901 22.85 73.0901 22.1V17.81C73.0901 16.99 73.1801 16.275 73.3601 15.665C73.5501 15.055 73.8801 14.585 74.3501 14.255C74.8301 13.915 75.5001 13.745 76.3601 13.745C77.1201 13.745 77.7201 13.885 78.1601 14.165C78.6101 14.445 78.9301 14.845 79.1201 15.365C79.3201 15.885 79.4201 16.51 79.4201 17.24V18.2H77.8151V17.345C77.8151 16.895 77.7901 16.5 77.7401 16.16C77.7001 15.81 77.5801 15.54 77.3801 15.35C77.1801 15.16 76.8451 15.065 76.3751 15.065C75.8951 15.065 75.5451 15.17 75.3251 15.38C75.1051 15.58 74.9601 15.87 74.8901 16.25C74.8301 16.62 74.8001 17.055 74.8001 17.555V22.37C74.8001 22.98 74.8501 23.465 74.9501 23.825C75.0501 24.175 75.2151 24.425 75.4451 24.575C75.6751 24.725 75.9851 24.8 76.3751 24.8C76.8351 24.8 77.1651 24.7 77.3651 24.5C77.5651 24.29 77.6901 24.005 77.7401 23.645C77.7901 23.285 77.8151 22.865 77.8151 22.385V21.485H79.4201V22.385C79.4201 23.125 79.3301 23.78 79.1501 24.35C78.9701 24.91 78.6601 25.35 78.2201 25.67C77.7801 25.98 77.1601 26.135 76.3601 26.135ZM87.5076 26.135C86.6476 26.135 85.9776 25.955 85.4976 25.595C85.0276 25.235 84.6976 24.75 84.5076 24.14C84.3276 23.53 84.2376 22.85 84.2376 22.1V17.81C84.2376 16.99 84.3276 16.275 84.5076 15.665C84.6976 15.055 85.0276 14.585 85.4976 14.255C85.9776 13.915 86.6476 13.745 87.5076 13.745C88.2676 13.745 88.8676 13.885 89.3076 14.165C89.7576 14.445 90.0776 14.845 90.2676 15.365C90.4676 15.885 90.5676 16.51 90.5676 17.24V18.2H88.9626V17.345C88.9626 16.895 88.9376 16.5 88.8876 16.16C88.8476 15.81 88.7276 15.54 88.5276 15.35C88.3276 15.16 87.9926 15.065 87.5226 15.065C87.0426 15.065 86.6926 15.17 86.4726 15.38C86.2526 15.58 86.1076 15.87 86.0376 16.25C85.9776 16.62 85.9476 17.055 85.9476 17.555V22.37C85.9476 22.98 85.9976 23.465 86.0976 23.825C86.1976 24.175 86.3626 24.425 86.5926 24.575C86.8226 24.725 87.1326 24.8 87.5226 24.8C87.9826 24.8 88.3126 24.7 88.5126 24.5C88.7126 24.29 88.8376 24.005 88.8876 23.645C88.9376 23.285 88.9626 22.865 88.9626 22.385V21.485H90.5676V22.385C90.5676 23.125 90.4776 23.78 90.2976 24.35C90.1176 24.91 89.8076 25.35 89.3676 25.67C88.9276 25.98 88.3076 26.135 87.5076 26.135ZM92.1823 26V13.85H96.8923V15.11H93.8773V19.13H96.3223V20.33H93.8773V24.785H96.9223V26H92.1823ZM98.2907 26V13.85H101.306C102.036 13.85 102.616 13.985 103.046 14.255C103.486 14.515 103.806 14.895 104.006 15.395C104.206 15.895 104.306 16.5 104.306 17.21C104.306 17.85 104.191 18.405 103.961 18.875C103.741 19.345 103.411 19.71 102.971 19.97C102.531 20.22 101.981 20.345 101.321 20.345H99.9857V26H98.2907ZM99.9857 19.13H100.766C101.256 19.13 101.641 19.075 101.921 18.965C102.201 18.855 102.401 18.665 102.521 18.395C102.641 18.115 102.701 17.725 102.701 17.225C102.701 16.645 102.656 16.2 102.566 15.89C102.486 15.58 102.311 15.365 102.041 15.245C101.771 15.125 101.351 15.065 100.781 15.065H99.9857V19.13ZM105.498 26V13.85H108.288C108.838 13.85 109.313 13.91 109.713 14.03C110.123 14.15 110.463 14.335 110.733 14.585C111.003 14.835 111.203 15.155 111.333 15.545C111.463 15.925 111.528 16.375 111.528 16.895C111.528 17.395 111.463 17.83 111.333 18.2C111.213 18.56 111.023 18.845 110.763 19.055C110.513 19.265 110.188 19.4 109.788 19.46C110.278 19.57 110.673 19.76 110.973 20.03C111.273 20.29 111.493 20.63 111.633 21.05C111.783 21.46 111.858 21.955 111.858 22.535C111.858 23.055 111.798 23.53 111.678 23.96C111.558 24.39 111.368 24.755 111.108 25.055C110.858 25.355 110.533 25.59 110.133 25.76C109.743 25.92 109.278 26 108.738 26H105.498ZM107.193 24.785H108.333C109.093 24.785 109.598 24.61 109.848 24.26C110.108 23.9 110.238 23.325 110.238 22.535C110.238 22.025 110.168 21.6 110.028 21.26C109.898 20.91 109.683 20.65 109.383 20.48C109.093 20.3 108.698 20.21 108.198 20.21H107.193V24.785ZM107.193 18.92H108.198C108.678 18.92 109.053 18.855 109.323 18.725C109.593 18.585 109.783 18.365 109.893 18.065C110.003 17.765 110.058 17.375 110.058 16.895C110.058 16.335 109.973 15.93 109.803 15.68C109.633 15.43 109.368 15.275 109.008 15.215C108.648 15.145 108.178 15.11 107.598 15.11H107.193V18.92ZM113.364 26V13.85H114.864V22.265L118.419 13.85H119.634V26H118.149V17.45L114.624 26H113.364ZM124.583 26.135C123.723 26.135 123.053 25.955 122.573 25.595C122.103 25.235 121.773 24.75 121.583 24.14C121.403 23.53 121.313 22.85 121.313 22.1V17.81C121.313 16.99 121.403 16.275 121.583 15.665C121.773 15.055 122.103 14.585 122.573 14.255C123.053 13.915 123.723 13.745 124.583 13.745C125.343 13.745 125.943 13.885 126.383 14.165C126.833 14.445 127.153 14.845 127.343 15.365C127.543 15.885 127.643 16.51 127.643 17.24V18.2H126.038V17.345C126.038 16.895 126.013 16.5 125.963 16.16C125.923 15.81 125.803 15.54 125.603 15.35C125.403 15.16 125.068 15.065 124.598 15.065C124.118 15.065 123.768 15.17 123.548 15.38C123.328 15.58 123.183 15.87 123.113 16.25C123.053 16.62 123.023 17.055 123.023 17.555V22.37C123.023 22.98 123.073 23.465 123.173 23.825C123.273 24.175 123.438 24.425 123.668 24.575C123.898 24.725 124.208 24.8 124.598 24.8C125.058 24.8 125.388 24.7 125.588 24.5C125.788 24.29 125.913 24.005 125.963 23.645C126.013 23.285 126.038 22.865 126.038 22.385V21.485H127.643V22.385C127.643 23.125 127.553 23.78 127.373 24.35C127.193 24.91 126.883 25.35 126.443 25.67C126.003 25.98 125.383 26.135 124.583 26.135Z" fill="white"/>
<path d="M58.9688 35V29.816H60.2552C60.5667 29.816 60.8142 29.8736 60.9976 29.9888C61.1854 30.0997 61.3219 30.2619 61.4072 30.4752C61.4926 30.6885 61.5352 30.9467 61.5352 31.2496C61.5352 31.5227 61.4862 31.7595 61.388 31.96C61.2942 32.1605 61.1534 32.3163 60.9656 32.4272C60.7779 32.5339 60.5432 32.5872 60.2616 32.5872H59.692V35H58.9688ZM59.692 32.0688H60.0248C60.2339 32.0688 60.3982 32.0453 60.5176 31.9984C60.6371 31.9515 60.7224 31.8704 60.7736 31.7552C60.8248 31.6357 60.8504 31.4693 60.8504 31.256C60.8504 31.0085 60.8312 30.8187 60.7928 30.6864C60.7587 30.5541 60.684 30.4624 60.5688 30.4112C60.4536 30.36 60.2744 30.3344 60.0312 30.3344H59.692V32.0688ZM62.0438 35V29.816H64.0534V30.3536H62.767V32.0688H63.8102V32.5808H62.767V34.4816H64.0662V35H62.0438ZM64.6373 35L64.7333 29.816H65.4437L66.3589 34.0208L67.2805 29.816H67.9845L68.0805 35H67.4981L67.4405 31.2368L66.5637 35H66.1541L65.2837 31.2368L65.2261 35H64.6373ZM70.1999 35.0576C69.85 35.0576 69.5705 34.9893 69.3615 34.8528C69.1524 34.7163 69.0031 34.5221 68.9135 34.2704C68.8239 34.0144 68.7791 33.7157 68.7791 33.3744V31.4096C68.7791 31.0683 68.8239 30.776 68.9135 30.5328C69.0073 30.2853 69.1567 30.0976 69.3615 29.9696C69.5705 29.8373 69.85 29.7712 70.1999 29.7712C70.5497 29.7712 70.8271 29.8373 71.0319 29.9696C71.2367 30.1019 71.3839 30.2896 71.4735 30.5328C71.5673 30.776 71.6143 31.0683 71.6143 31.4096V33.3808C71.6143 33.7179 71.5673 34.0123 71.4735 34.264C71.3839 34.5157 71.2367 34.712 71.0319 34.8528C70.8271 34.9893 70.5497 35.0576 70.1999 35.0576ZM70.1999 34.488C70.3919 34.488 70.5369 34.4496 70.6351 34.3728C70.7332 34.2917 70.7993 34.1808 70.8335 34.04C70.8676 33.8949 70.8847 33.7264 70.8847 33.5344V31.2624C70.8847 31.0704 70.8676 30.9061 70.8335 30.7696C70.7993 30.6288 70.7332 30.5221 70.6351 30.4496C70.5369 30.3728 70.3919 30.3344 70.1999 30.3344C70.0079 30.3344 69.8607 30.3728 69.7583 30.4496C69.6601 30.5221 69.594 30.6288 69.5599 30.7696C69.5257 30.9061 69.5087 31.0704 69.5087 31.2624V33.5344C69.5087 33.7264 69.5257 33.8949 69.5599 34.04C69.594 34.1808 69.6601 34.2917 69.7583 34.3728C69.8607 34.4496 70.0079 34.488 70.1999 34.488ZM72.3251 35V29.816H73.0483V32.056H74.3795V29.816H75.1027V35H74.3795V32.5744H73.0483V35H72.3251ZM76.4822 35V30.3536H75.6054V29.816H78.0566V30.3536H77.2054V35H76.4822ZM80.0188 35V29.816H82.246V30.3408H80.742V31.9728H80.902C81.2775 31.9728 81.5868 32.0176 81.83 32.1072C82.0775 32.1925 82.261 32.344 82.3804 32.5616C82.5042 32.7792 82.566 33.0864 82.566 33.4832C82.566 33.752 82.534 33.9824 82.47 34.1744C82.406 34.3621 82.3058 34.5179 82.1692 34.6416C82.037 34.7653 81.8684 34.8571 81.6636 34.9168C81.4631 34.9723 81.222 35 80.9404 35H80.0188ZM80.742 34.4816H80.9468C81.1602 34.4816 81.3351 34.4581 81.4716 34.4112C81.6124 34.36 81.7148 34.2619 81.7788 34.1168C81.8471 33.9717 81.8812 33.7584 81.8812 33.4768C81.8812 33.1227 81.813 32.8709 81.6764 32.7216C81.5442 32.5723 81.2946 32.4976 80.9276 32.4976H80.742V34.4816ZM83.1813 35V29.816H83.9045V31.9728H84.1093C84.4848 31.9728 84.7941 32.0176 85.0373 32.1072C85.2805 32.1925 85.4619 32.344 85.5813 32.5616C85.7051 32.7792 85.7669 33.0864 85.7669 33.4832C85.7669 33.752 85.7349 33.9824 85.6709 34.1744C85.6069 34.3621 85.5067 34.5179 85.3701 34.6416C85.2379 34.7653 85.0693 34.8571 84.8645 34.9168C84.664 34.9723 84.4229 35 84.1413 35H83.1813ZM83.9045 34.4816H84.1413C84.3589 34.4816 84.536 34.4581 84.6725 34.4112C84.8133 34.36 84.9179 34.2619 84.9861 34.1168C85.0544 33.9717 85.0885 33.7584 85.0885 33.4768C85.0885 33.1227 85.0203 32.8709 84.8837 32.7216C84.7472 32.5723 84.4955 32.4976 84.1285 32.4976H83.9045V34.4816ZM86.3045 35V29.816H87.0277V35H86.3045ZM88.4072 35V30.3536H87.5304V29.816H89.9816V30.3536H89.1304V35H88.4072ZM91.8061 35.0576C91.4563 35.0576 91.1768 34.9893 90.9677 34.8528C90.7587 34.7163 90.6093 34.5221 90.5197 34.2704C90.4301 34.0144 90.3853 33.7157 90.3853 33.3744V31.4096C90.3853 31.0683 90.4301 30.776 90.5197 30.5328C90.6136 30.2853 90.7629 30.0976 90.9677 29.9696C91.1768 29.8373 91.4563 29.7712 91.8061 29.7712C92.156 29.7712 92.4333 29.8373 92.6381 29.9696C92.8429 30.1019 92.9901 30.2896 93.0797 30.5328C93.1736 30.776 93.2205 31.0683 93.2205 31.4096V33.3808C93.2205 33.7179 93.1736 34.0123 93.0797 34.264C92.9901 34.5157 92.8429 34.712 92.6381 34.8528C92.4333 34.9893 92.156 35.0576 91.8061 35.0576ZM91.8061 34.488C91.9981 34.488 92.1432 34.4496 92.2413 34.3728C92.3395 34.2917 92.4056 34.1808 92.4397 34.04C92.4739 33.8949 92.4909 33.7264 92.4909 33.5344V31.2624C92.4909 31.0704 92.4739 30.9061 92.4397 30.7696C92.4056 30.6288 92.3395 30.5221 92.2413 30.4496C92.1432 30.3728 91.9981 30.3344 91.8061 30.3344C91.6141 30.3344 91.4669 30.3728 91.3645 30.4496C91.2664 30.5221 91.2003 30.6288 91.1661 30.7696C91.132 30.9061 91.1149 31.0704 91.1149 31.2624V33.5344C91.1149 33.7264 91.132 33.8949 91.1661 34.04C91.2003 34.1808 91.2664 34.2917 91.3645 34.3728C91.4669 34.4496 91.6141 34.488 91.8061 34.488ZM93.9313 35V29.816H95.1217C95.3564 29.816 95.5591 29.8416 95.7297 29.8928C95.9047 29.944 96.0497 30.0229 96.1649 30.1296C96.2801 30.2363 96.3655 30.3728 96.4209 30.5392C96.4764 30.7013 96.5041 30.8933 96.5041 31.1152C96.5041 31.3285 96.4764 31.5141 96.4209 31.672C96.3697 31.8256 96.2887 31.9472 96.1777 32.0368C96.0711 32.1264 95.9324 32.184 95.7617 32.2096C95.9708 32.2565 96.1393 32.3376 96.2673 32.4528C96.3953 32.5637 96.4892 32.7088 96.5489 32.888C96.6129 33.0629 96.6449 33.2741 96.6449 33.5216C96.6449 33.7435 96.6193 33.9461 96.5681 34.1296C96.5169 34.3131 96.4359 34.4688 96.3249 34.5968C96.2183 34.7248 96.0796 34.8251 95.9089 34.8976C95.7425 34.9659 95.5441 35 95.3137 35H93.9313ZM94.6545 34.4816H95.1409C95.4652 34.4816 95.6807 34.4069 95.7873 34.2576C95.8983 34.104 95.9537 33.8587 95.9537 33.5216C95.9537 33.304 95.9239 33.1227 95.8641 32.9776C95.8087 32.8283 95.7169 32.7173 95.5889 32.6448C95.4652 32.568 95.2967 32.5296 95.0833 32.5296H94.6545V34.4816ZM94.6545 31.9792H95.0833C95.2881 31.9792 95.4481 31.9515 95.5633 31.896C95.6785 31.8363 95.7596 31.7424 95.8065 31.6144C95.8535 31.4864 95.8769 31.32 95.8769 31.1152C95.8769 30.8763 95.8407 30.7035 95.7681 30.5968C95.6956 30.4901 95.5825 30.424 95.4289 30.3984C95.2753 30.3685 95.0748 30.3536 94.8273 30.3536H94.6545V31.9792ZM98.6124 35.0576C98.2625 35.0576 97.983 34.9893 97.774 34.8528C97.5649 34.7163 97.4156 34.5221 97.326 34.2704C97.2364 34.0144 97.1916 33.7157 97.1916 33.3744V31.4096C97.1916 31.0683 97.2364 30.776 97.326 30.5328C97.4198 30.2853 97.5692 30.0976 97.774 29.9696C97.983 29.8373 98.2625 29.7712 98.6124 29.7712C98.9622 29.7712 99.2396 29.8373 99.4444 29.9696C99.6492 30.1019 99.7964 30.2896 99.886 30.5328C99.9798 30.776 100.027 31.0683 100.027 31.4096V33.3808C100.027 33.7179 99.9798 34.0123 99.886 34.264C99.7964 34.5157 99.6492 34.712 99.4444 34.8528C99.2396 34.9893 98.9622 35.0576 98.6124 35.0576ZM98.6124 34.488C98.8044 34.488 98.9494 34.4496 99.0476 34.3728C99.1457 34.2917 99.2118 34.1808 99.246 34.04C99.2801 33.8949 99.2972 33.7264 99.2972 33.5344V31.2624C99.2972 31.0704 99.2801 30.9061 99.246 30.7696C99.2118 30.6288 99.1457 30.5221 99.0476 30.4496C98.9494 30.3728 98.8044 30.3344 98.6124 30.3344C98.4204 30.3344 98.2732 30.3728 98.1708 30.4496C98.0726 30.5221 98.0065 30.6288 97.9724 30.7696C97.9382 30.9061 97.9212 31.0704 97.9212 31.2624V33.5344C97.9212 33.7264 97.9382 33.8949 97.9724 34.04C98.0065 34.1808 98.0726 34.2917 98.1708 34.3728C98.2732 34.4496 98.4204 34.488 98.6124 34.488ZM100.738 35V29.816H101.378V33.4064L102.894 29.816H103.413V35H102.779V31.352L101.275 35H100.738ZM102.139 29.4128C101.832 29.4128 101.614 29.3296 101.486 29.1632C101.363 28.9968 101.301 28.7899 101.301 28.5424H101.698C101.702 28.696 101.736 28.8155 101.8 28.9008C101.868 28.9819 101.981 29.0224 102.139 29.0224C102.301 29.0224 102.414 28.9797 102.478 28.8944C102.547 28.8091 102.581 28.6917 102.581 28.5424H102.984C102.984 28.7899 102.92 28.9968 102.792 29.1632C102.668 29.3296 102.451 29.4128 102.139 29.4128ZM106.257 35V30.3536H105.38V29.816H107.832V30.3536H106.98V35H106.257ZM108.331 35V29.816H110.341V30.3536H109.055V32.0688H110.098V32.5808H109.055V34.4816H110.354V35H108.331ZM110.618 35L111.699 32.2864L110.637 29.816H111.309L112.096 31.6464L112.813 29.816H113.485L112.397 32.344L113.536 35H112.864L112.019 33.048L111.29 35H110.618ZM114.025 35V29.816H114.748V32.056H116.079V29.816H116.803V35H116.079V32.5744H114.748V35H114.025ZM117.613 35V29.816H118.253V33.4064L119.769 29.816H120.288V35H119.654V31.352L118.15 35H117.613ZM121.1 35V29.816H121.823V32.12H122.092L123.02 29.816H123.743L122.719 32.28L123.871 35H123.148L122.098 32.472H121.823V35H121.1ZM124.35 35V29.816H124.99V33.4064L126.507 29.816H127.025V35H126.392V31.352L124.888 35H124.35Z" fill="white"/>
</svg>
