<svg width="371" height="58" viewBox="0 0 371 58" fill="none" xmlns="http://www.w3.org/2000/svg">
<path d="M92.3 16.9H106.6L107.2 21.6C108.3 17.8 115.5 15.2 119.9 15.2C130.1 15.2 134.2 21.5 134.2 32.4V56H118.4V34.9C118.4 30.7 117.6 27.5 113.4 27.5C109.5 27.5 107.4 31.7 107.4 34.7V56H92.4V16.9H92.3Z" fill="#001EAA"/>
<path d="M0 56.2V0.700012H26.5C42.3 0.700012 49.5 8.40001 49.5 19.5C49.5 31.4 42.9 39.5 26.5 39.5H17.6V56.1H0V56.2ZM24.6 26.1C28.8 26.1 33.4 25.2 33.4 20.3C33.4 15.3 28.5 14.2 24.6 14.2H17.6V26.1H24.6Z" fill="#001EAA"/>
<path d="M266.4 16.9H280.8L281.3 21.6C282.6 17.8 289.8 15.2 294.1 15.2C304.1 15.2 308.4 21.5 308.4 32.4V56.2H292.6V34.9C292.6 30.7 291.7 27.5 287.4 27.5C283.6 27.5 281.6 31.7 281.6 34.7V56.2H266.4V16.9Z" fill="#001EAA"/>
<path d="M193.8 42.1C193.8 43.7 194.6 46 195.5 46.8C196.6 47.6 198 48.4 199.7 48.4C202.5 48.4 204.7 47.6 204.7 45C204.9 38.4 180.9 44.2 180.9 28.6C180.9 17.6 189.4 15.1 198.1 15.1C206.9 15.1 218.9 16.8 218.5 28.7H205.2C205.2 27.6 204.7 26.8 204.1 25.9C203.2 24.8 202.1 24.3 200 24.2C197.3 24 194.8 24.5 194.8 26.5C195 32.6 219.6 28.5 219.6 42.9C219.6 52.9 212.6 57.5 198.9 57.5C190.3 57.3 179.5 53 179.5 42.2L193.8 42.1Z" fill="#001EAA"/>
<path d="M355.9 32.1C355.9 31.2 355.9 29.9 354.6 28.3C354 27.5 352.6 25.8 350.4 25.8C344.4 25.8 342.9 31.6 342.9 36.3C342.9 41.8 345.4 46.3 350.1 46.3C354.2 46.3 356.2 42.5 356.2 39.4H370C370.3 47.5 364.7 57.3 349.5 57.3C337.1 57.3 328.4 48.7 328.4 36.2C328.4 21 339.7 15.2 349.4 15.2C362.6 15.2 370.1 23.2 369.9 32.1H355.9Z" fill="#001EAA"/>
<path d="M75.5 56.2L73.9 52.9C70.9 55.4 67.8 56.8 62.8 56.8C57.9 56.6 48.4 56 48.4 45.5C48.4 28.3 74.1 36.1 74.1 27.6C74.1 24.8 71 24.9 69.2 24.9C66.1 24.9 64 25.5 63.6 30.2H50.4C50.4 22.1 52.9 15.2 70.1 15.2C86.9 15.2 88.6 24 88.6 32.6V50.5C88.6 52.9 88.8 53.9 90.3 55.7V56L75.5 56.2ZM74.2 38.2C68.9 40.7 62.1 40.6 62 44.5C62 47 63.4 48.3 66.5 48.3C71.7 48.2 74.6 42.9 74.2 38.2ZM163.8 56.2L162.2 52.9C159.2 55.4 155.9 56.8 151.1 56.8C146.1 56.6 136.5 56 136.5 45.5C136.5 28.3 162.2 36.1 162.3 27.6C162.3 24.8 159 24.9 157.4 24.9C154.1 24.9 152.2 25.5 151.8 30.2H138.6C138.6 22.1 140.9 15.2 158.3 15.2C174.9 15.2 176.6 24 176.6 32.6V50.5C176.6 52.9 176.8 53.9 178.3 55.7V56L163.8 56.2ZM162.6 38.2C157.3 40.7 150.4 40.6 150.4 44.5C150.4 47 151.7 48.3 154.9 48.3C159.9 48.2 162.9 42.9 162.6 38.2Z" fill="#001EAA"/>
<path d="M325.8 56.2V16.9H311.2V56.2H325.8ZM311.2 11.8H325.8V0.5H311.2V11.8Z" fill="#001EAA"/>
<path d="M243 15.5C256 15.5 264 24.6 264 36.5C264 48.6 256 57.5 243 57.5C230 57.5 221.9 48.6 221.9 36.5C221.8 24.5 230 15.5 243 15.5ZM236.1 36.4C236.1 41.3 237.7 47.2 243 47.4C248.3 47.4 249.7 41.3 249.7 36.4C249.7 31.7 248.3 25.6 243 25.6C237.6 25.6 236.2 31.7 236.1 36.4Z" fill="#001EAA"/>
</svg>
