<svg height="512pt" viewBox="-87 0 511 512" width="512pt" xmlns="http://www.w3.org/2000/svg"><g fill-rule="evenodd"><path d="m329.1875 184.324219h-321.191406v269.664062c0 11 8.988281 19.984375 19.984375 19.984375h281.195312c10.996094 0 20.011719-8.988281 20.011719-19.984375zm0 0" fill="#e6e6e6"/><path d="m309.175781 7.496094h-281.195312c-10.996094 0-19.984375 8.988281-19.984375 19.988281v156.839844l158.261718 45.214843 162.929688-45.214843v-156.84375c0-10.996094-9.015625-19.984375-20.011719-19.984375zm0 0" fill="#e6e6e6"/><path d="m309.117188 473.972656-37.644532-18.085937-37.671875 18.085937v22.734375c0 4.28125 3.515625 7.796875 7.769531 7.796875h59.78125c4.28125 0 7.765626-3.515625 7.765626-7.796875zm0 0" fill="#b3b3b3"/><path d="m256.988281 473.972656h-23.1875v22.734375c0 4.28125 3.515625 7.796875 7.769531 7.796875h23.1875c-4.28125 0-7.769531-3.515625-7.769531-7.796875zm0 0" fill="#888b99"/><path d="m106.046875 473.972656-37.644531-18.085937-37.671875 18.085937v22.734375c0 4.28125 3.515625 7.796875 7.792969 7.796875h59.753906c4.28125 0 7.769531-3.515625 7.769531-7.796875zm0 0" fill="#b3b3b3"/><path d="m53.917969 473.972656h-23.1875v22.734375c0 4.28125 3.515625 7.796875 7.796875 7.796875h23.15625c-4.277344 0-7.765625-3.515625-7.765625-7.796875zm0 0" fill="#888b99"/><path d="m281.734375 282.488281v-47.792969c0-3.851562-3.144531-7-7-7h-12.980469c-3.855468 0-7.003906 3.144532-7.003906 7v47.792969c0 3.855469 3.148438 7.003907 7.003906 7.003907h12.980469c3.855469 0 7-3.148438 7-7.003907zm0 0" fill="#3f4c63"/><path d="m281.734375 123.125v-47.792969c0-3.855469-3.144531-7.003906-7-7.003906h-12.980469c-3.855468 0-7.003906 3.148437-7.003906 7.003906v47.792969c0 3.855469 3.148438 7.003906 7.003906 7.003906h12.980469c3.855469-.003906 7-3.148437 7-7.003906zm0 0" fill="#3f4c63"/><path d="m329.1875 354.378906c-50.9375 62.816406-118.429688 69.816406-228.382812 44.105469-41.472657-9.695313-92.808594 11.398437-92.808594 11.398437v44.105469c0 11 8.988281 19.984375 19.984375 19.984375h281.195312c10.996094 0 20.011719-8.984375 20.011719-19.984375zm0 0" fill="#bae0f2"/><path d="m56.382812 184.324219v-156.84375c0-10.996094 8.988282-19.984375 19.984376-19.984375h-48.386719c-10.996094 0-19.984375 8.988281-19.984375 19.984375v156.84375zm0 0" fill="#b3b3b3"/><path d="m56.382812 397.378906v-213.054687h-48.386718v225.558593s21.742187-8.933593 48.386718-12.503906zm0 0" fill="#b3b3b3"/><path d="m56.382812 397.378906c-26.644531 3.574219-48.386718 12.503906-48.386718 12.503906v44.105469c0 11 8.988281 19.984375 19.984375 19.984375h48.386719c-8.503907 0-15.816407-5.386718-18.707032-12.925781-.820312-2.210937-1.277344-4.59375-1.277344-7.058594zm0 0" fill="#93baf0"/></g><path d="m274.734375 60.832031h-12.984375c-7.992188 0-14.496094 6.503907-14.496094 14.5v47.792969c0 7.992188 6.503906 14.496094 14.496094 14.496094h12.984375c7.996094 0 14.5-6.503906 14.5-14.496094v-47.792969c0-7.996093-6.507813-14.5-14.5-14.5zm-.496094 61.796875h-11.992187v-46.800781h11.992187zm0 0"/><path d="m261.75 220.199219c-7.992188 0-14.496094 6.503906-14.496094 14.5v47.789062c0 7.996094 6.503906 14.5 14.496094 14.5h12.984375c7.996094 0 14.5-6.503906 14.5-14.5v-47.789062c0-7.996094-6.503906-14.5-14.5-14.5zm12.488281 61.792969h-11.992187v-46.800782h11.992187zm0 0"/><path d="m309.175781 0h-281.195312c-15.152344 0-27.480469 12.328125-27.480469 27.480469v382.300781.066406 44.140625c0 13.535157 9.835938 24.808594 22.734375 27.0625v15.65625c0 8.433594 6.859375 15.292969 15.292969 15.292969h59.753906c8.414062 0 15.261719-6.859375 15.261719-15.292969v-15.238281h112.761719v15.238281c0 8.433594 6.847656 15.292969 15.261718 15.292969h59.785156c8.414063 0 15.261719-6.859375 15.261719-15.292969v-16.265625c11.566407-3.253906 20.070313-13.875 20.070313-26.453125v-188.136719c0-4.140624-3.355469-7.5-7.496094-7.5s-7.5 3.359376-7.5 7.5v85.832032c-46.066406 55.324218-105.855469 66-219.179688 39.5-32.296874-7.550782-69.351562 2.203125-87.015624 8.023437v-207.382812h306.195312v39.414062c0 4.140625 3.355469 7.5 7.496094 7.5s7.5-3.359375 7.5-7.5v-203.757812c0-15.152344-12.339844-27.480469-27.507813-27.480469zm-210.625 496.707031c0 .15625-.152343.296875-.269531.296875h-59.753906c-.140625 0-.300782-.15625-.300782-.296875v-15.238281h60.320313v15.238281zm202.800781.296875h-59.78125c-.101562 0-.269531-.144531-.269531-.296875v-15.238281h60.320313v15.238281c0 .15625-.152344.296875-.269532.296875zm-202.257812-91.21875c40.605469 9.496094 74.175781 14.160156 102.816406 14.15625 13.132813 0 25.230469-.980468 36.492188-2.925781 32.964844-5.695313 59.84375-19.523437 83.285156-43.0625v80.035156c0 6.882813-5.613281 12.484375-12.511719 12.484375h-281.195312c-6.882813 0-12.484375-5.601562-12.484375-12.484375v-38.914062c13.175781-4.679688 51.875-16.707031 83.597656-9.289063zm-83.597656-228.957031v-149.347656c0-6.882813 5.601562-12.484375 12.484375-12.484375h281.195312c6.898438 0 12.511719 5.601562 12.511719 12.484375v149.347656zm0 0"/></svg>