<svg width="350" height="54" viewBox="0 0 350 54" fill="none" xmlns="http://www.w3.org/2000/svg">
<path d="M75 2.70001H53.8L45.4 50.1H58.4L63.7 13.2H65L70.4 50.1H83.4L75 2.70001Z" fill="#074CA1"/>
<path d="M136.4 50.1L135.8 14.4H134.6L128.5 50.1H115.8L109.7 14.4H108.5L107.9 50.1H95.8L97.7 2.70001H118L121.6 28.9H122.7L126.2 2.70001H146.5L148.5 50.1H136.4Z" fill="#074CA1"/>
<path d="M210.9 39.7L210.8 2.70001H224.1V39V39.2V39.4L224.2 39.6V39.8V40V40.2L224.3 40.3L224.4 40.5V40.7L224.5 40.9L224.6 41L224.7 41.2L224.8 41.3L224.9 41.5L225 41.6L225.1 41.7L225.2 41.9L225.4 42L225.5 42.1L225.7 42.2L225.8 42.3L226 42.4L226.1 42.5L226.3 42.6L226.5 42.7H226.6L226.8 42.8H227H227.2L227.4 42.9H227.6H227.8H228H228.1L228.3 42.8H228.5H228.7L228.9 42.7H229.1L229.2 42.6L229.4 42.5L229.6 42.4L229.7 42.3L229.9 42.2L230 42.1L230.1 42L230.3 41.9L230.4 41.7L230.5 41.6L230.6 41.5L230.7 41.3L230.8 41.2L230.9 41L231 40.9L231.1 40.7L231.2 40.5V40.3L231.3 40.2V40V39.8L231.4 39.6V39.4V39.2V39V2.70001H244.7V39.9V40.7L244.6 41.4L244.5 42.2L244.3 42.9L244.1 43.6L243.9 44.3L243.6 44.9L243.2 45.5L242.9 46.1L242.5 46.7L242 47.2L241.6 47.7L241.1 48.2L240.5 48.7L240 49.1L239.4 49.5L238.8 49.9L238.2 50.3L237.5 50.6L236.8 51L236.1 51.2L235.4 51.5L234.7 51.7L234 52L233.2 52.1L232.5 52.3L230.9 52.6L229.3 52.7H227.8H226.2L224.6 52.5L223.1 52.3L222.3 52.1L221.5 51.9L220.8 51.7L220.1 51.5L219.4 51.2L218.7 50.9L218 50.6L217.4 50.2L216.7 49.9L216.1 49.5L215.5 49L215 48.6L214.5 48.1L214 47.6L213.5 47.1L213.1 46.5L212.7 46L212.3 45.4L212 44.7L211.7 44.1L211.4 43.4L211.2 42.7L211.1 42L210.9 41.2V40.5V39.7Z" fill="#074CA1"/>
<path d="M301.2 2.70001H289.7V32.4H289.4L276 2.70001H261.8V50.1H273.3V22.4H273.6L286.2 50.1H301.2V2.70001Z" fill="#074CA1"/>
<path d="M162.6 40.8V34.5H175.9L175.8 37.3V38V38.6V38.9L175.9 39.2V39.5L176 39.8L176.1 40V40.1L176.2 40.3L176.3 40.4V40.5L176.4 40.6V40.7L176.5 40.8L176.6 40.9L176.7 41L176.8 41.1L176.9 41.2L177 41.3L177.1 41.4L177.2 41.5L177.3 41.6H177.4L177.5 41.7L177.7 41.8H177.8L177.9 41.9L178.1 42H178.3L178.6 42.1L179 42.2H179.4H179.8H179.9H180H180.1H180.2H180.3H180.4H180.5H180.6L180.7 42.1L180.9 42L181.1 41.9L181.3 41.8L181.5 41.7L181.7 41.6L181.9 41.4L182.1 41.3L182.2 41.1L182.4 40.9L182.5 40.7L182.7 40.5L182.8 40.3L182.9 40L183 39.8L183.1 39.5L183.2 39.3V39V38.7V38.4V38.1V37.8V37.4L183.1 37.1L183 36.8L182.9 36.4L182.7 36L182.5 35.7L182.4 35.5L182.3 35.3L182.2 35.1L182.1 35L182 34.8L181.9 34.7L181.6 34.4L181.3 34.1L181 33.8L180.6 33.6L180.3 33.3L179.5 32.9L178.7 32.4L176.8 31.5L174.7 30.5L172.4 29.3L171.1 28.6L169.9 27.8L168.7 26.9L167.4 25.8L167.2 25.7L167 25.6L166.9 25.4L166.7 25.2L166.5 25.1L166.4 24.9L166 24.5L165.8 24.2L165.5 23.7L165.2 23.3L165 22.9L164.8 22.4L164.6 21.9L164.4 21.4L164.3 20.9L164 19.8L163.8 18.7L163.6 17.5L163.5 16.4L163.4 15.3V14.2V13.1L163.5 12.1L163.6 11.1L163.7 10.3L163.9 9.60002L164 9.00002L164.2 8.40001L164.5 7.80002L164.8 7.30002L165.1 6.70001L165.4 6.20001L165.8 5.70001L166.2 5.30002L166.6 4.90001L167.1 4.40001L167.6 4.10002L168.1 3.70001L168.6 3.40001L169.1 3.00002L169.7 2.70001L170.3 2.50002L170.9 2.20001L171.5 2.00002L172.2 1.80002L173.5 1.40001L174.8 1.10002L176.2 0.900009L177.6 0.800018H179.1H180.5L181.9 0.900009L183.3 1.10002L184.7 1.40001L186.1 1.70001L187.3 2.10002L188.6 2.50002L189.7 3.00002L190.3 3.30002L190.8 3.60002L191.3 3.90001L191.8 4.30002L192.3 4.60002L192.7 5.00002L193.1 5.30002L193.5 5.70001L193.9 6.10002L194.2 6.50002L194.5 7.00002L194.6 7.20001L194.7 7.40001L194.9 7.60002L195 7.90001L195.1 8.10002V8.30002L195.2 8.60002L195.3 8.80002V9.00002L195.4 9.30002V9.50002L195.5 9.80002V10.1V10.3V16.9H183.4L183.5 14.1V13.5L183.4 12.9V12.6V12.4L183.3 12.1L183.2 11.9V11.8V11.7L183.1 11.6V11.4L183 11.3L182.9 11.2V11.1H182.8L182.7 11V10.9L182.6 10.8L182.5 10.7L182.4 10.6H182.3L182.2 10.5L182.1 10.4H181.9L181.8 10.3L181.7 10.2H181.6L181.4 10.1H181.3L180.9 10L180.6 9.90001H180.2H179.8H179.4H179.2H179H178.9L178.7 10H178.5L178.3 10.1L178.1 10.2L178 10.3H177.8L177.6 10.5L177.4 10.6L177.3 10.7L177.1 10.8L177 11L176.8 11.2L176.7 11.3L176.6 11.4L176.5 11.5V11.6L176.4 11.7V11.8L176.3 11.9V12L176.2 12.1V12.3V12.4L176.1 12.5V12.6V12.7V12.9V13L176 13.1V13.3V13.4L176.1 13.6V13.7V14L176.2 14.3L176.3 14.7L176.4 15L176.5 15.3L176.7 15.7L177 16.1L177.4 16.5L177.8 16.9L178.1 17.3L178.9 18L179.7 18.6L180.5 19.2L181.4 19.7L182.3 20.2L183.1 20.6L186.6 22.2L188.4 23L189.2 23.4L190 23.9L190.8 24.3L191.5 24.8L191.9 25.1L192.3 25.4L192.6 25.7L192.9 26L193.2 26.3L193.6 26.7L193.8 27.1L194.1 27.4L194.4 27.8L194.7 28.3L194.9 28.7L195.1 29.2L195.3 29.7L195.5 30.2L195.7 30.7L195.9 31.3L196 31.9L196.1 32.5L196.3 33.1V33.8L196.5 35.2V36.8L196.4 38.5L196.3 40.4L196.2 41.1L196.1 41.7L195.9 42.4L195.7 43L195.4 43.6L195.1 44.2L194.8 44.8L194.4 45.3L194 45.8L193.6 46.3L193.1 46.8L192.6 47.3L192.1 47.7L191.6 48.1L191 48.5L190.4 48.8L189.8 49.1L189.2 49.5L188.5 49.7L187.9 50L187.2 50.3L186.5 50.5L185 50.9L183.5 51.1L182 51.3L180.5 51.5H179L177.4 51.4L175.9 51.3L174.4 51.1L173 50.8L171.6 50.4L170.2 49.9L169.6 49.6L168.9 49.3L168.3 49L167.8 48.7L167.2 48.4L166.7 48L166.2 47.6L165.7 47.2L165.2 46.8L164.8 46.3L164.4 45.9L164.1 45.4L163.7 44.9L163.6 44.6L163.4 44.3L163.3 44.1L163.2 43.8L163.1 43.5L163 43.2L162.9 42.9L162.8 42.6V42.3L162.7 42V41.7L162.6 41.4V41.1V40.8Z" fill="#074CA1"/>
<path d="M16.3 0.700012L14.3 0.900009L12.4 1.10002L11.5 1.30002L10.7 1.50002L9.9 1.70001L9.1 1.90001L8.4 2.20001L7.7 2.50002L7 2.80002L6.4 3.10002L5.8 3.40001L5.3 3.80002L4.8 4.20001L4.3 4.60002L3.9 5.00002L3.4 5.40001L3.1 5.90001L2.7 6.30002L2.4 6.80002L2.1 7.30002L1.8 7.80002L1.6 8.30002L1.3 8.80002L1.1 9.30002L1 9.80002L0.800003 10.4L0.699997 10.9L0.599998 11.4L0.5 12V12.5L0.400002 13.6V14.7L0.5 15.8L0.599998 16.9L0.800003 17.9L1.1 18.9L1.4 19.9L1.7 20.8L2 21.7L2.4 22.5L2.8 23.3L3.2 24L3.6 24.6L3.8 24.9L4 25.1L4.2 25.3L4.4 25.5L4.6 25.7L4.7 25.8H4.8L6.1 26.9L7.3 27.8L8.6 28.6L9.8 29.3L12.1 30.5L14.2 31.5L16.1 32.4L16.9 32.9L17.7 33.3L18.1 33.6L18.4 33.8L18.7 34.1L19 34.4L19.3 34.7L19.4 34.8L19.5 35L19.6 35.1L19.7 35.3L19.8 35.5L19.9 35.7L20.1 36L20.3 36.4L20.4 36.8L20.5 37.1L20.6 37.4V37.8L20.7 38.1V38.4V38.7L20.6 39V39.3L20.5 39.5L20.4 39.8L20.3 40L20.2 40.3L20.1 40.5L20 40.7L19.8 40.9L19.6 41.1L19.5 41.3L19.3 41.4L19.1 41.6L18.9 41.7L18.8 41.8L18.6 41.9L18.4 42L18.2 42.1L18 42.2H17.9H17.8H17.7H17.6H17.5H17.4H17.3H17.2H16.8H16.4L16 42.1L15.7 42H15.5L15.4 41.9L15.2 41.8H15.1L14.9 41.7L14.8 41.6H14.7L14.6 41.5L14.5 41.4L14.4 41.3L14.3 41.2L14.2 41.1L14.1 41L14 40.9L13.9 40.8V40.7L13.8 40.6L13.7 40.5V40.4L13.6 40.3V40.1L13.5 40L13.4 39.8V39.5L13.3 39.2V38.9L13.2 38.6V38V37.3L13.3 34.5H0V40.8V41.1V41.4L0.0999985 41.7V42L0.199997 42.3V42.6L0.300003 42.9L0.400002 43.2L0.5 43.5L0.599998 43.8L0.699997 44.1L0.900002 44.3L1 44.6L1.1 44.9L1.5 45.4L1.8 45.9L2.2 46.3L2.6 46.8L3.1 47.2L3.6 47.6L4.1 48L4.6 48.4L5.2 48.7L5.8 49L6.4 49.3L7 49.6L7.6 49.9L9 50.4L10.4 50.8L11.8 51.1L13.3 51.3L14.9 51.4L16.4 51.5H17.9L19.5 51.3L21 51.1L22.4 50.9L23.9 50.5L24.6 50.3L25.3 50L25.9 49.7L26.6 49.5L27.2 49.1L27.8 48.8L28.4 48.5L29 48.1L29.5 47.7L30.1 47.3L30.5 46.8L31 46.3L31.4 45.8L31.8 45.3L32.2 44.8L32.5 44.2L32.8 43.6L33.1 43L33.3 42.4L33.5 41.7L33.6 41.1L33.7 40.4L33.8 38.5L33.9 36.8V35.2L33.8 33.8L33.7 33.1L33.6 32.5L33.4 31.9L33.3 31.3L33.1 30.7L33 30.2L32.8 29.7L32.5 29.2L32.3 28.7L32.1 28.3L31.8 27.8L31.5 27.4L31.3 27.1L31 26.7L30.7 26.3L30.3 26L30 25.7L29.7 25.4L29.3 25.1L29 24.8L28.2 24.3L27.4 23.9L26.6 23.4L25.8 23L24.1 22.2L20.5 20.6L19.7 20.2L18.8 19.7L18 19.2L17.1 18.6L16.3 18L15.6 17.3L15.2 16.9L14.8 16.5L14.5 16.1L14.1 15.7L13.9 15.3L13.8 15L13.7 14.7L13.6 14.3L13.5 14V13.7V13.6V13.4V13.3V13.1V13V12.9V12.7V12.6V12.5L13.6 12.4V12.3L13.7 12.1V12V11.9L13.8 11.8V11.7L13.9 11.6L14 11.5V11.4L14.1 11.3L14.2 11.2L14.4 11L14.5 10.8L14.7 10.7L14.9 10.6L15 10.5L15.2 10.3H15.4L15.6 10.2L15.7 10.1L15.9 10H16.1L16.3 9.90001H16.5H16.6H16.8H17.2H17.6H18L18.4 10L18.7 10.1H18.8L19 10.2H19.1L19.2 10.3L19.4 10.4H19.5L19.6 10.5L19.7 10.6H19.8L19.9 10.7L20 10.8L20.1 10.9V11L20.2 11.1H20.3L20.4 11.2V11.3L20.5 11.4V11.6L20.6 11.7V11.8L20.7 11.9V12.1L20.8 12.4V12.6L20.9 12.9V13.5V14.1L20.8 16.9H32.9V10.3V10V9.60002L32.8 9.30002V8.90001L32.7 8.60002L32.6 8.30002L32.5 8.00002V7.70001L32.3 7.40001L32.2 7.10002L32.1 6.90001L31.9 6.60002L31.8 6.30002L31.6 6.10002L31.4 5.80002L31.3 5.60002L31.1 5.40001L30.9 5.20001L30.6 4.90001L30.4 4.70001L30 4.30002L29.5 3.90001L28.9 3.60002L28.4 3.30002L27.8 3.00002L27.2 2.70001L26.6 2.40001L25.9 2.20001L24.6 1.80002L23.2 1.50002L21.9 1.20001L20.4 1.00002L19 0.900009L16.3 0.700012Z" fill="#074CA1"/>
<path d="M334.9 53.2L336.4 53.3L337.9 53.2L339.2 53.1L340.4 53L341.5 52.8L342.5 52.5L343 52.4L343.5 52.2L343.9 52.1L344.3 51.9L344.7 51.7L345.1 51.5L345.5 51.3L345.8 51.1L346.2 50.9L346.5 50.6L346.8 50.4L347 50.1L347.3 49.9L347.5 49.6L347.8 49.3L348 49L348.2 48.8L348.4 48.5L348.6 48.2L348.7 47.9L348.9 47.6L349 47.3L349.2 46.6L349.4 46L349.6 45.4L349.7 44.7L349.8 44.1L349.9 43.4L350 42.8V41.5V40.3V38.2V25.3H334.3V32.2H337.5V40.3V40.5V40.7V40.8L337.4 41V41.2V41.3L337.3 41.5L337.2 41.6V41.8L337.1 41.9L337 42.1L336.9 42.2L336.8 42.4L336.7 42.5L336.6 42.6L336.5 42.7L336.4 42.8L336.3 42.9L336.1 43L336 43.1L335.9 43.2L335.7 43.3L335.6 43.4L335.4 43.5H335.3L335.1 43.6H335L334.8 43.7H334.6H334.4H334.3H334.1H333.9H333.7H333.6H333.4L333.2 43.6H333.1L332.9 43.5H332.8L332.6 43.4L332.5 43.3L332.3 43.2L332.2 43.1L332.1 43L331.9 42.9L331.8 42.8L331.7 42.7L331.6 42.6L331.5 42.5L331.4 42.4L331.3 42.2L331.2 42.1L331.1 41.9L331 41.8V41.6L330.9 41.5L330.8 41.3V41.2V41L330.7 40.8V40.7V40.5V40.3V13.8V13.7V13.5V13.3L330.8 13.1V13V12.8L330.9 12.7L331 12.5V12.4L331.1 12.2L331.2 12.1L331.3 11.9L331.4 11.8L331.5 11.7L331.6 11.5L331.7 11.4L331.8 11.3L331.9 11.2L332.1 11.1L332.2 11L332.3 10.9L332.5 10.8H332.6L332.8 10.7L332.9 10.6H333.1L333.2 10.5H333.4H333.6L333.7 10.4H333.9H334.1H334.3H334.4L334.6 10.5H334.8H335L335.1 10.6H335.3L335.4 10.7L335.6 10.8H335.7L335.9 10.9L336 11L336.1 11.1L336.3 11.2L336.4 11.3L336.5 11.4L336.6 11.5L336.7 11.7L336.8 11.8L336.9 11.9L337 12.1L337.1 12.2L337.2 12.4V12.5L337.3 12.7L337.4 12.8V13V13.1L337.5 13.3V13.5V13.7V13.8V18.2H350V12.8L349.9 12.1V11.8V11.4L349.8 11.1V10.8L349.7 10.5L349.6 10.2L349.5 9.90001L349.4 9.60002L349.3 9.30002L349.2 9.00002L349 8.70001L348.9 8.50002L348.6 7.90001L348.2 7.40001L347.9 6.90001L347.4 6.50002L347 6.00002L346.5 5.60002L346 5.20001L345.5 4.80002L345 4.50002L344.4 4.10002L343.8 3.80002L343.2 3.50002L342.5 3.20001L341.9 3.00002L341.2 2.80002L339.8 2.40001L338.4 2.10002L336.9 1.80002L335.4 1.70001H333.9H332.4L331 1.80002L329.5 2.00002L328.1 2.30002L326.7 2.70001L326 2.90001L325.4 3.20001L324.7 3.40001L324.1 3.70001L323.5 4.00002L322.9 4.40001L322.4 4.70001L321.9 5.10002L321.4 5.50002L320.9 5.90001L320.4 6.40001L320 6.80002L319.7 7.30002L319.3 7.80002L319 8.30002L318.9 8.60002L318.7 8.90001L318.6 9.10002L318.5 9.40001L318.4 9.70001L318.3 10L318.2 10.3L318.1 10.6V10.9L318 11.3V11.6V11.9L317.9 12.6V42.4V42.8L318 43.3V43.7V44.1L318.1 44.5L318.2 44.9L318.3 45.3L318.4 45.7L318.5 46L318.6 46.4L318.8 46.7L318.9 47L319.1 47.3L319.3 47.6L319.4 47.9L319.6 48.2L319.9 48.5L320.1 48.8L320.3 49L320.5 49.3L320.8 49.5L321 49.7L321.6 50.2L322.1 50.6L322.7 50.9L323.3 51.2L324 51.5L324.6 51.8L325.3 52.1L326 52.3L326.7 52.5L328.1 52.8L329.5 53L331 53.2H332.4L333.7 53.3L334.9 53.2Z" fill="#074CA1"/>
</svg>
