<svg width="370" height="120" viewBox="0 0 370 120" fill="none" xmlns="http://www.w3.org/2000/svg">
<path d="M24.5 70.3C23.9 73.4 23.4 77.1 26 79.5C29.9 82.9 35.4 83.2 40.2 81.8C41.7 81.3 43.1 80.4 44.1 79.2C45.1 78 45.5 76.6 45.2 75C44.8 73.5 44 72.2 42.6 71.3C41.7 70.6 40.6 70.3 39.6 70C35 68.6 30.5 67.7 25.8 66.4C21 65 16.6 62.9 13.1 59.2C11.9 57.9 10.9 56.4 10.2 54.8C9.3 52.7 8.8 50.5 8.7 48.2C8.5 43.2 9.4 38.3 12 33.9C14.5 29.8 17.6 26.6 21.7 24.1C27.1 20.9 33 19.5 39.1 19.3C49.4 18.9 60.3 19.4 68.9 26.3C69.4 26.7 69.9 27.2 70.4 27.7C75.3 32.7 75.9 39.9 74.8 46.4H51.3C51.2 45.2 51.5 43.9 51.4 42.7C51.3 42.5 51.3 42.2 51.3 42C50.6 39.4 48.2 38.1 45.9 37.2C43.5 36.5 41.1 36.5 38.6 37.1C37.5 37.3 36.6 37.9 35.6 38.6C34.1 39.8 33 41.6 33.4 43.6C34.2 46.8 37.6 47.9 40.4 48.5C45.4 49.6 50.2 50.3 55 52C57.3 52.8 59.3 53.8 61.4 55.3C62.9 56.4 64.2 57.4 65.4 58.7C66.7 60.2 67.8 61.9 68.6 63.7C69.6 65.9 69.9 68.2 70.1 70.5C70.5 77.2 68.3 83.7 64 89C62.4 90.9 60.9 92.6 59 94C56.4 95.8 54 97.1 51.2 98.2C48.5 99.2 45.8 99.8 42.9 100.1C37.5 100.6 32.2 101 26.8 100.2C21.3 99.5 16.1 98.4 11.2 95.7C6.6 93.1 3.20001 89 1.30001 84.2C-0.299994 80.1 -0.399997 74.5 1 70.4L24.5 70.3ZM100.5 70.8H116.8V70.7C115.9 64.2 114.9 57.8 114 51.2C113.8 50 113.8 48.7 113.8 47.5C113.8 47 113.9 46.5 113.7 46C113 47.3 112.4 48.8 111.7 50.1C108 57 104 63.7 100.5 70.8ZM160 20.6L136.9 119.8H135.6L139.7 98.9H120.9C120.3 95 119.7 91 119.2 87H91.6C89.3 91 87 94.9 84.9 98.9H61.5C76.6 72.7 91.6 46.6 106.9 20.7C114.7 20.7 122.3 20.7 130.1 20.7L142.2 85.2L155 20.5L160 20.6ZM343.1 65.5C344.9 60.5 345.7 55.3 345.3 49.9C345.1 46.9 344.1 44.1 342.2 41.8C338.8 37.9 333.3 37 328.6 38.8C322.1 41.5 318.4 47.8 316.3 54.3C314.6 59.6 313.4 65 314.1 70.7C314.4 73 314.9 75.2 316.2 77.2C317.2 78.9 318.7 80.2 320.4 81.1C322 81.9 323.8 82.3 325.5 82.5C327.9 82.6 330.3 81.8 332.3 80.7C338 77.4 341 71.5 343.1 65.5ZM365.5 74.1C365.1 75.1 364.6 76 364.1 77C363.2 78.9 362.3 80.3 361 82.1C358.1 86.3 354.9 89.4 350.8 92.4C347.8 94.7 344.8 96.4 341.4 97.7C338.5 98.8 335.5 99.6 332.5 100C327.2 100.8 322.3 100.9 317 99.9C313.1 99.1 309.7 98.1 306.2 96.4C303.2 95 300.5 93.1 298.1 90.5C292.6 84.5 289.8 76.8 289.6 68.9C289.2 57.1 292.4 46.1 299.5 36C302.5 31.7 306 28.8 310.4 25.9C313.3 24 316.2 22.5 319.5 21.5C332.1 17.7 345.7 17.8 357.2 25.6C360.6 27.9 363.2 30.6 365.5 34.2C367.9 38.1 369.2 42.2 369.6 46.6C370.8 56.1 369 65.4 365.5 74.1ZM160.3 119.8L173.1 64.9L187.2 98.8H216.1L229.3 30.3L245 70.4L239.3 98.8H263L268.6 70.9L308.1 20.6H279.2C279.2 20.6 262.2 44 260.5 48.4H260.4C259.8 43.5 250.7 20.6 250.7 20.6H231.1L234.8 0.200012H233.6L212 95.3L211.2 93.7L228.9 0.200012H227.5L208 85.8L207.3 84.2L222.8 0.300018H221.5L204.3 76.3L203.5 74.6L216.9 0.400009H215.6L200.5 67L199.7 65L210.8 0.400009H209.5L196.8 58L183.3 20.8H178.4L159 119.8H160.3ZM154.6 119.8L177.5 20.6H172.7L153.3 119.8H154.6ZM148.8 119.8L171.8 20.6H166.9L147.5 119.8H148.8ZM142.8 119.8L165.9 20.6H161L141.5 119.8H142.8Z" fill="#D3003F"/>
</svg>
