<svg width="370" height="54" viewBox="0 0 370 54" fill="none" xmlns="http://www.w3.org/2000/svg">
<path d="M126.424 21.166H93.924V2.16602H77.024V51.766H93.924V31.866H126.524V51.766H143.324V2.16602H126.524V21.166" fill="#ED1A3A"/>
<path d="M171.452 31.893L183.152 12.593L194.552 31.893H171.452ZM176.652 2.19299L146.452 51.793H159.352L165.552 41.693H200.352L206.352 51.793H226.952L196.752 2.19299H176.652Z" fill="#ED1A3A"/>
<path d="M293.688 23.698C297.688 18.398 297.188 10.798 289.488 6.298C282.288 2.198 268.588 0.697998 260.088 0.697998C246.388 0.697998 237.588 1.59801 230.088 2.89801V51.798H246.888V10.298C252.988 9.098 259.088 9.098 261.388 9.198C268.088 9.498 271.788 10.498 274.888 12.698C277.988 14.898 278.888 19.798 274.788 23.198C271.788 25.698 265.588 27.698 251.988 25.598L250.088 28.798L275.988 51.798H298.888L275.888 31.898C281.288 31.198 289.688 28.998 293.688 23.698Z" fill="#ED1A3A"/>
<path d="M40.099 19.391C30.399 17.491 22.099 16.291 22.099 13.191C22.099 9.69098 28.799 8.79098 38.299 9.79098C47.299 10.791 55.699 13.091 63.599 16.391L69.599 6.591C63.199 4.191 50.099 1.09098 38.199 0.690976C25.199 0.290976 3.099 1.49098 2.199 14.691C1.299 26.791 18.499 29.691 29.799 32.291C40.799 34.891 51.099 35.791 51.099 39.591C51.099 42.291 47.499 44.391 37.799 43.591C26.199 42.691 16.399 39.591 6.499 34.691L-0.000999451 45.391C10.899 49.691 25.199 53.091 38.099 53.291C53.399 53.591 70.699 51.091 71.099 37.991C71.399 27.091 60.099 23.191 40.099 19.391Z" fill="#ED1A3A"/>
<path d="M348.157 23.335C345.257 25.735 340.957 26.535 334.257 26.535C329.357 26.535 324.157 25.635 320.057 24.635V10.335C326.157 9.13496 332.357 9.13499 334.657 9.23499C341.357 9.53499 345.257 10.635 348.257 12.735C351.257 14.835 352.257 19.935 348.157 23.335ZM362.857 6.33496C355.957 2.23496 343.157 0.734985 333.257 0.734985C319.557 0.734985 310.657 1.63497 303.157 2.93497V51.835H319.957V33.935C325.157 34.835 331.657 35.335 337.357 35.235C351.157 35.135 361.357 31.835 366.057 26.835C372.657 19.635 370.457 10.835 362.857 6.33496Z" fill="#ED1A3A"/>
</svg>
