<svg width="370" height="60" viewBox="0 0 370 60" fill="none" xmlns="http://www.w3.org/2000/svg">
<path d="M40 13.8C37.2 12.8 34.5 12 31.9 11.4C29.3 10.9 26.9 10.6 24.7 10.6C21.9 10.6 19.8 11.1 18.3 12C16.8 12.9 16 14.1 16 15.5C16 16.5 16.4 17.4 17.3 18.2C18.2 19 19.6 19.6 21.4 20.4L31.8 25.4C35.9 27.3 39 29.5 41.2 32.1C43.4 34.7 44.4 37.8 44.4 41.2C44.3 46.7 42.1 51.1 37.6 54.3C33.2 57.5 27.3 59.1 19.9 59.2C17.1 59.2 14.1 59.1 10.9 58.7C7.8 58.4 4.6 57.8 1.3 57V45.6C4.6 46.8 7.7 47.5 10.7 48C13.7 48.5 16.4 48.8 18.8 48.8C21.9 48.8 24.2 48.3 25.7 47.3C27.4 46.4 28.1 45.1 28.1 43.4C28.1 42.5 27.8 41.7 27.2 41.1C26.6 40.3 25.5 39.7 24.2 39L12.6 34.1C8.2 32.2 5 29.9 3.1 27C0.999999 24.3 0 21.2 0 17.6C0.1 12.5 2.3 8.29998 6.4 5.39998C10.6 2.29998 16.3 0.899988 23.5 0.799988C26.1 0.799988 28.9 1.09998 31.7 1.39998C34.7 1.79998 37.4 2.29999 39.9 2.79999V13.8H40ZM68.9 58.2H51.9V1.89998H68.9V58.2ZM123.6 12.3H98.4V24.8H120.3V34.2H98.4V47.3H124.1V58.2H82.1V1.89998H123.6V12.3ZM202.7 58.2H186.9V21L170.4 58.7H160.6L144.9 21V58.2H133.5V1.89998H154.2L168.3 36.4L183.1 1.89998H202.8L202.7 58.2ZM257.4 12.3H232.3V24.8H254.2V34.2H232.3V47.3H257.9V58.2H215.9V1.89998H257.4V12.3ZM316.9 58.2H298.9L278.7 22V58.1H267.3V1.79999H285.8L305.5 37.3V1.79999H316.9V58.2ZM365.6 13.8C362.8 12.8 360.1 12 357.5 11.4C354.9 10.9 352.5 10.6 350.3 10.6C347.5 10.6 345.3 11.1 343.7 12C342.2 12.9 341.4 14.1 341.4 15.5C341.4 16.5 341.8 17.4 342.6 18.2C343.4 19 344.8 19.6 347 20.4L357.4 25.4C361.5 27.3 364.6 29.5 366.8 32.2C369 34.8 370 38 370 41.7C369.9 47 367.7 51.2 363.2 54.3C358.8 57.5 352.8 59.1 345.3 59.2C342.6 59.2 339.6 59.1 336.4 58.7C333.3 58.4 330.1 57.8 326.8 57V45.6C330.1 46.8 333.2 47.5 336.2 48C339.2 48.5 341.9 48.8 344.3 48.8C347.4 48.8 349.6 48.3 351.2 47.4C352.7 46.5 353.5 45.3 353.5 43.9C353.5 42.9 353.2 41.8 352.6 41.1C352 40.3 350.9 39.6 349.6 39L338.2 34.1C333.8 32.2 330.7 30 328.7 27.3C326.8 24.7 325.7 21.5 325.7 17.7C325.8 12.6 327.9 8.39998 332 5.49998C336.2 2.39998 341.9 0.999979 349.1 0.899979C351.5 0.899979 354.2 1.19998 357.1 1.49998C359.9 1.89998 362.8 2.39998 365.6 2.89998V13.8V13.8Z" fill="#009999"/>
</svg>
