
<svg version="1.1" id="Capa_1" xmlns="http://www.w3.org/2000/svg" xmlns:xlink="http://www.w3.org/1999/xlink" x="0px" y="0px"
	 viewBox="0 0 480.677 480.677" style="enable-background:new 0 0 480.677 480.677;" xml:space="preserve" fill="#fff">

		<path d="M192.343,297.408V168.344c47.993-21.774,69.247-78.332,47.472-126.324c-7.559-16.66-19.747-30.796-35.112-40.724
			c-3.704-2.408-8.659-1.357-11.067,2.347c-0.843,1.297-1.292,2.81-1.293,4.357v68.48l-40,19.928l-40-19.928V8
			c-0.002-4.418-3.585-7.998-8.003-7.997c-1.547,0.001-3.06,0.45-4.357,1.293C55.718,29.897,43.019,88.966,71.62,133.232
			c9.928,15.366,24.064,27.554,40.724,35.112v129.064c-34.176,15.389-56.111,49.432-56,86.912
			c-0.197,53.019,42.623,96.159,95.642,96.357s96.159-42.623,96.357-95.642C248.482,347.37,226.584,313.102,192.343,297.408z
			 M226.865,413.785c-16.069,41.157-62.46,61.495-103.617,45.425s-61.495-62.46-45.425-103.617
			c8.13-20.823,24.602-37.295,45.425-45.425c3.073-1.197,5.097-4.158,5.096-7.456V163.04c-0.003-3.295-2.026-6.252-5.096-7.448
			c-40.936-15.746-61.357-61.697-45.61-102.633c4.115-10.698,10.496-20.378,18.706-28.375v56.848c0,3.034,1.716,5.807,4.432,7.16
			l48,23.912c2.247,1.12,4.889,1.12,7.136,0l48-23.912c2.716-1.353,4.432-4.126,4.432-7.16V24.584
			c31.417,30.605,32.076,80.884,1.471,112.302c-7.998,8.21-17.678,14.592-28.375,18.706c-3.07,1.196-5.093,4.153-5.096,7.448
			v139.672c-0.001,3.298,2.023,6.259,5.096,7.456C222.596,326.237,242.934,372.628,226.865,413.785z"/>

		<path d="M215.247,380.28l-28-47.824c-1.425-2.468-4.055-3.991-6.904-4h-56c-2.849,0.009-5.479,1.532-6.904,4l-28,47.824
			c-1.46,2.495-1.46,5.585,0,8.08l28,47.824c1.435,2.452,4.063,3.96,6.904,3.96h56c2.841,0,5.469-1.508,6.904-3.96l28-47.824
			C216.708,385.865,216.708,382.776,215.247,380.28z M175.759,424.104h-46.832l-23.312-39.784l23.312-39.824l46.832-0.04
			l23.312,39.824L175.759,424.104z"/>

		<path d="M152.343,161.112c-4.418,0-8,3.582-8,8v127.536c0,4.418,3.582,8,8,8s8-3.582,8-8V169.112
			C160.343,164.694,156.762,161.112,152.343,161.112z"/>

		<path d="M424.343,264v-24c0-4.418-3.582-8-8-8h-24V73.888l7.2-14.312c0.754-1.514,1.009-3.228,0.728-4.896l-8-48
			c-0.647-3.869-4.005-6.698-7.928-6.68h-32c-3.908,0.001-7.243,2.826-7.888,6.68l-8,48c-0.281,1.668-0.026,3.382,0.728,4.896
			l7.2,14.312V232h-24.04c-4.418,0-8,3.582-8,8v24c0.091,2.224,1.017,4.332,2.592,5.904c2.687,2.671,4.194,6.307,4.184,10.096
			c-0.015,3.904-1.615,7.634-4.432,10.336c-1.502,1.502-2.346,3.54-2.344,5.664v128c0.035,30.913,25.087,55.965,56,56
			c30.913-0.035,55.965-25.087,56-56V296c-0.086-2.225-1.012-4.335-2.592-5.904c-2.686-2.672-4.192-6.307-4.184-10.096
			c0.013-3.906,1.613-7.64,4.432-10.344C423.5,268.156,424.343,266.122,424.343,264z M359.119,16h18.448l6.456,38.752l-6.84,13.672
			c-0.554,1.111-0.841,2.335-0.84,3.576v160h-16V72c0.014-1.238-0.26-2.462-0.8-3.576l-6.88-13.672L359.119,16z M408.343,260.912
			c-8.956,11.128-8.956,26.992,0,38.12V424c0,22.091-17.909,40-40,40c-22.091,0-40-17.909-40-40V299.08
			c8.956-11.128,8.956-26.992,0-38.12V248h80V260.912z"/>

		<path d="M352.343,312c-4.418,0-8,3.582-8,8v104c0,4.418,3.582,8,8,8s8-3.582,8-8V320C360.343,315.582,356.762,312,352.343,312z"/>

		<path d="M384.343,312c-4.418,0-8,3.582-8,8v104c0,4.418,3.582,8,8,8s8-3.582,8-8V320C392.343,315.582,388.762,312,384.343,312z"/>
</svg>
