<svg viewBox="-47 0 475 476" xmlns="http://www.w3.org/2000/svg" fill="#fff"><path d="m270.65625 3.09375c-1.878906-1.957031-4.464844-3.0703125-7.175781-3.09375h-212.75c-27.667969.0703125-50.101563 22.449219-50.230469 50.117188v375.765624c.128906 27.667969 22.5625 50.046876 50.230469 50.117188h279.539062c27.667969-.070312 50.101563-22.449219 50.230469-50.117188v-305.75c-.042969-2.625-1.09375-5.128906-2.941406-6.996093zm2.84375 31.683594 73.125 75.222656h-63.144531c-5.457031.054688-9.925781-4.324219-9.980469-9.78125zm56.769531 421.222656h-279.539062c-16.628907-.054688-30.113281-13.488281-30.230469-30.117188v-375.765624c.117188-16.628907 13.601562-30.0625 30.230469-30.117188h202.769531v80.132812c.019531 16.511719 13.417969 29.886719 29.933594 29.867188h77.066406v295.882812c-.117188 16.628907-13.601562 30.0625-30.230469 30.117188zm0 0"/><path d="m302.519531 382h-230.199219c-5.523437 0-10 4.476562-10 10s4.476563 10 10 10h230.199219c5.523438 0 10-4.476562 10-10s-4.476562-10-10-10zm0 0"/><path d="m72.320312 348h137.816407c5.523437 0 10-4.476562 10-10s-4.476563-10-10-10h-137.816407c-5.523437 0-10 4.476562-10 10s4.476563 10 10 10zm0 0"/><path d="m79.484375 284h138.53125c5.523437 0 10.484375-4.648438 10.484375-10.171875v-12.644531c-.132812-38.339844-31.320312-69.3125-69.664062-69.183594h-20.175782c-38.105468-.089844-69.070312 30.730469-69.160156 68.839844v12.988281c-.023438 5.550781 4.429688 10.089844 9.984375 10.171875zm10.015625-22.816406c.023438-27.144532 22.015625-49.148438 49.160156-49.183594h20.175782c27.117187 0 49.664062 22.066406 49.664062 49.183594v2.816406h-119zm0 0"/><path d="m148.882812 187.800781c27.511719 0 49.8125-22.300781 49.8125-49.8125 0-27.507812-22.300781-49.808593-49.8125-49.808593-27.507812 0-49.808593 22.300781-49.808593 49.808593 0 27.511719 22.300781 49.8125 49.808593 49.8125zm0-79.621093c16.464844 0 29.8125 13.34375 29.8125 29.808593 0 16.464844-13.347656 29.8125-29.8125 29.8125-16.464843 0-29.808593-13.347656-29.808593-29.8125 0-16.464843 13.34375-29.808593 29.808593-29.808593zm0 0"/></svg>