<svg version="1.1" id="Layer_1" xmlns="http://www.w3.org/2000/svg" xmlns:xlink="http://www.w3.org/1999/xlink" x="0px" y="0px"
	 viewBox="0 0 512 512" fill="#fff">
			<path d="M509.596,488.469l-7.384-84.982c-2.974-34.234-26.982-62.976-59.74-71.519l-99.565-25.964
				c-2.623-0.684-5.416,0.043-7.372,1.921c-0.598,0.574-1.204,1.138-1.813,1.698l-20.216-10.828l-4.901-16.682
				c20.462-14.274,36.874-37.657,42.252-61.213c5.466-4.435,9.932-9.976,13.122-16.247c5.587-3.612,9.3-9.882,9.3-17.014v-18.597
				c0-2.883-0.615-5.623-1.705-8.109h2.858c8.99,0,16.304-7.314,16.304-16.304v-8.952c0-8.053-5.874-14.742-13.557-16.054v-3.181
				c0-24.962-8.959-49.115-25.227-68.008c-14.68-17.048-34.453-28.855-56.205-33.733c-0.678-3.036-2.097-5.898-4.203-8.287
				C287.952,2.338,282.758,0,277.295,0h-42.589c-5.463,0-10.657,2.338-14.251,6.416c-2.106,2.389-3.524,5.25-4.203,8.287
				c-21.751,4.877-41.525,16.685-56.204,33.733c-16.268,18.893-25.227,43.046-25.227,68.008v3.181
				c-7.684,1.312-13.558,8.002-13.558,16.054v8.952c0,8.99,7.314,16.304,16.304,16.304h2.858c-1.091,2.486-1.705,5.226-1.705,8.109
				v18.597c0,7.132,3.714,13.402,9.299,17.014c3.181,6.253,7.63,11.78,13.073,16.207c5.323,23.602,21.76,47.089,42.254,61.414
				l-4.853,16.521l-20.216,10.828c-0.609-0.56-1.214-1.124-1.813-1.698c-1.956-1.877-4.748-2.604-7.372-1.921l-99.565,25.964
				c-32.758,8.543-56.765,37.284-59.74,71.519L2.404,488.47c-0.524,6.031,1.521,12.048,5.613,16.51
				c4.091,4.462,9.909,7.02,15.962,7.02h71.483h55.792h209.492h55.792h71.483c6.053,0,11.871-2.56,15.962-7.02
				C508.075,500.518,510.12,494.5,509.596,488.469z M357.674,187.64c0,1.904-1.152,3.54-2.794,4.26
				c-0.595,0.259-1.221,0.392-1.859,0.392h-0.27v-27.902h0.27c0.31,0,0.613,0.033,0.906,0.092c0.152,0.03,0.297,0.086,0.444,0.132
				c0.134,0.041,0.272,0.072,0.401,0.125c0.206,0.084,0.402,0.195,0.594,0.309c0.058,0.034,0.121,0.059,0.178,0.097
				c0.23,0.151,0.447,0.325,0.652,0.516c0.904,0.849,1.478,2.047,1.478,3.382V187.64z M281.863,112.199
				c0.357-0.53,0.694-1.074,1.01-1.63c0.061-0.109,0.12-0.221,0.18-0.33c0.314-0.574,0.614-1.159,0.883-1.761
				c0.007-0.017,0.016-0.031,0.023-0.048c0.273-0.612,0.514-1.241,0.738-1.878c0.043-0.121,0.086-0.24,0.127-0.362
				c0.207-0.622,0.391-1.255,0.549-1.898c0.03-0.122,0.056-0.245,0.084-0.367c0.155-0.673,0.291-1.355,0.39-2.049
				c0.006-0.041,0.011-0.081,0.017-0.122l9.015-71.25c39.089,9.866,66.692,44.813,66.692,85.939v2.931h-87.017
				c0.324-0.209,0.639-0.429,0.952-0.652c0.038-0.027,0.078-0.052,0.117-0.079c0.53-0.382,1.038-0.789,1.537-1.209
				c0.104-0.087,0.207-0.174,0.31-0.263c0.479-0.417,0.942-0.85,1.388-1.302c0.088-0.089,0.174-0.181,0.26-0.272
				c0.439-0.458,0.866-0.928,1.269-1.417c0.023-0.027,0.047-0.053,0.069-0.08c0.415-0.507,0.804-1.035,1.18-1.574
				C281.712,112.417,281.789,112.309,281.863,112.199z M232.164,16.736c0.371-0.42,1.196-1.128,2.542-1.128h42.589
				c1.346,0,2.171,0.708,2.542,1.128c0.343,0.389,0.896,1.216,0.747,2.389l-0.135,1.065v0.002l-1.866,14.744l-8.197,64.788
				c-0.107,0.72-0.306,1.408-0.568,2.064c-1.431,3.574-5.012,6.073-9.091,6.073h-9.454c-4.828,0-8.97-3.494-9.659-8.137
				l-10.062-79.533c-0.001-0.007-0.003-0.014-0.004-0.021l-0.132-1.047C231.268,17.953,231.821,17.125,232.164,16.736z
				 M159.251,192.294h-0.271v-0.001c-0.639,0-1.264-0.133-1.857-0.392c-1.643-0.719-2.796-2.356-2.796-4.26v-18.597
				c0-1.279,0.519-2.438,1.358-3.28c0.02-0.018,0.041-0.033,0.06-0.052c0.018-0.017,0.039-0.03,0.056-0.047
				c0.206-0.194,0.426-0.369,0.658-0.52c0.05-0.032,0.106-0.055,0.158-0.085c0.199-0.12,0.402-0.232,0.615-0.32
				c0.117-0.048,0.241-0.075,0.363-0.112c0.16-0.051,0.317-0.11,0.482-0.143c0.292-0.058,0.594-0.092,0.904-0.092h0.269V192.294z
				 M150.373,145.325h-12.806c-0.384,0.001-0.696-0.311-0.696-0.695v-8.952c0-0.384,0.312-0.696,0.696-0.696
				c0.887,0,1.735-0.155,2.528-0.428c0.794,0.273,1.643,0.428,2.529,0.428h40.824c4.31,0,7.804-3.494,7.804-7.804
				c0-4.31-3.494-7.804-7.804-7.804H150.43v-2.931c0-41.125,27.602-76.072,66.694-85.939l9.015,71.25
				c0.005,0.041,0.01,0.081,0.017,0.121c0.099,0.693,0.235,1.373,0.39,2.046c0.028,0.124,0.055,0.249,0.085,0.371
				c0.158,0.642,0.341,1.273,0.548,1.893c0.042,0.124,0.085,0.246,0.129,0.368c0.223,0.635,0.463,1.262,0.735,1.873
				c0.008,0.02,0.019,0.037,0.027,0.057c0.268,0.598,0.565,1.179,0.878,1.751c0.061,0.111,0.12,0.224,0.182,0.334
				c0.315,0.557,0.652,1.099,1.008,1.628c0.075,0.111,0.152,0.22,0.229,0.33c0.375,0.538,0.764,1.066,1.178,1.572
				c0.023,0.028,0.049,0.055,0.072,0.083c0.404,0.489,0.829,0.958,1.268,1.416c0.086,0.089,0.171,0.181,0.258,0.27
				c0.447,0.453,0.911,0.886,1.391,1.305c0.1,0.087,0.203,0.173,0.304,0.258c0.499,0.422,1.011,0.831,1.543,1.214
				c0.033,0.024,0.069,0.046,0.103,0.07c0.316,0.226,0.636,0.447,0.962,0.659h-25.131c-4.31,0-7.804,3.494-7.804,7.804
				c0,4.31,3.494,7.804,7.804,7.804h157.06c0.887,0,1.735-0.155,2.528-0.427c0.794,0.273,1.642,0.427,2.529,0.427
				c0.384,0,0.696,0.312,0.696,0.696v8.952c0,0.384-0.312,0.696-0.696,0.696h-12.805h-16.682H167.054H150.373z M175.787,214.755
				c-0.127-0.694-0.24-1.383-0.341-2.065c-0.028-0.19-0.054-0.38-0.08-0.57c-0.091-0.656-0.171-1.306-0.236-1.949
				c-0.032-0.324-0.057-0.647-0.083-0.97c-0.043-0.51-0.086-1.02-0.114-1.52c-0.045-0.851-0.075-1.7-0.075-2.542v-5.042v-39.162
				h24.646c-1.087,1.341-1.742,3.049-1.742,4.91v6.254c0,0.303,0.022,0.601,0.055,0.895v6.215c0,4.31,3.494,7.804,7.804,7.804
				c4.31,0,7.804-3.494,7.804-7.804v-6.254c0-0.303-0.022-0.601-0.055-0.895v-6.215c0-1.861-0.653-3.569-1.742-4.91h88.633
				c-1.087,1.341-1.742,3.049-1.742,4.91v6.254c0,0.303,0.022,0.601,0.055,0.895v6.215c0,4.31,3.494,7.804,7.804,7.804
				s7.804-3.494,7.804-7.804v-6.254c0-0.303-0.022-0.601-0.055-0.895v-6.215c0-1.861-0.653-3.569-1.742-4.91h24.756v39.162v4.848
				c0,0.851-0.03,1.709-0.076,2.57c-0.029,0.525-0.076,1.061-0.122,1.597c-0.026,0.309-0.048,0.616-0.08,0.926
				c-0.07,0.673-0.155,1.354-0.252,2.04c-0.024,0.173-0.047,0.344-0.072,0.517c-0.106,0.709-0.227,1.423-0.36,2.145
				c-4.272,22.903-22.493,47.296-43.445,58.848c-0.146,0.08-0.291,0.157-0.437,0.236c-0.674,0.365-1.351,0.715-2.03,1.053
				c-0.207,0.103-0.414,0.208-0.622,0.309c-0.793,0.384-1.588,0.752-2.385,1.098c-0.034,0.015-0.068,0.031-0.102,0.046
				c-0.814,0.35-1.63,0.673-2.448,0.981c-0.246,0.093-0.491,0.179-0.737,0.267c-0.605,0.219-1.211,0.424-1.818,0.619
				c-0.246,0.079-0.491,0.159-0.737,0.234c-0.822,0.25-1.644,0.485-2.468,0.69l-0.978,0.242c-3.367,0.836-6.38,1.544-9.151,2.113
				c-5.036,1.034-9.266,1.604-13.297,1.606c-3.878,0-7.838-0.508-12.589-1.47c-2.993-0.607-6.295-1.391-10.096-2.348
				c-0.821-0.207-1.641-0.444-2.461-0.696c-0.237-0.073-0.474-0.151-0.712-0.228c-0.627-0.203-1.253-0.418-1.878-0.647
				c-0.215-0.079-0.43-0.154-0.645-0.236c-1.689-0.641-3.37-1.371-5.037-2.187c-0.129-0.062-0.257-0.128-0.386-0.193
				c-0.807-0.402-1.612-0.819-2.412-1.259c-0.019-0.01-0.037-0.021-0.057-0.031C198.267,262.209,180.003,237.691,175.787,214.755z
				 M208.744,311.012c1.843-0.987,3.213-2.673,3.803-4.68l4.724-16.082c0.108,0.049,0.216,0.091,0.324,0.138
				c0.73,0.326,1.463,0.642,2.2,0.942c0.399,0.163,0.798,0.318,1.197,0.473c0.593,0.23,1.186,0.461,1.782,0.674
				c0.587,0.211,1.175,0.403,1.762,0.596c0.443,0.146,0.885,0.3,1.33,0.436c1.056,0.324,2.11,0.623,3.164,0.889
				c5.284,1.331,9.846,2.384,14.059,3.116c4.337,0.753,8.301,1.163,12.286,1.174c0.051,0,0.102,0.002,0.153,0.002
				c0.001,0,0.001,0,0.002,0c7.842,0,15.549-1.533,26.205-4.178l0.496-0.123l0.482-0.12c1.062-0.263,2.126-0.562,3.191-0.885
				c0.472-0.143,0.941-0.306,1.412-0.459c0.565-0.185,1.13-0.366,1.695-0.568c0.652-0.231,1.301-0.483,1.95-0.734
				c0.348-0.135,0.695-0.267,1.042-0.409c0.819-0.332,1.633-0.683,2.444-1.045c0.077-0.034,0.154-0.063,0.231-0.099l4.777,16.261
				c0.589,2.006,1.959,3.692,3.803,4.679l17.122,9.17c-18.896,12.787-41.355,19.726-64.377,19.726s-45.481-6.939-64.377-19.726
				L208.744,311.012z M142.872,328.972l26.017-6.785c23.983,21.531,54.742,33.334,87.111,33.334
				c32.368,0,63.128-11.804,87.11-33.334l26.017,6.785v35.421c0,21.885-14.672,41.455-35.682,47.588l-1.469,0.429
				c-50.276,14.679-103.394,14.572-153.613-0.306c-20.897-6.191-35.491-25.737-35.491-47.532V328.972z M352.942,496.392H159.058
				v-29.188h193.885V496.392z M408.734,496.39H368.55V459.4c0-4.31-3.494-7.804-7.804-7.804H151.254
				c-4.31,0-7.804,3.494-7.804,7.804v36.992h-40.184v-52.534c0-4.31-3.494-7.804-7.804-7.804s-7.804,3.494-7.804,7.804v52.534
				H23.978c-1.715,0-3.298-0.696-4.458-1.96c-1.159-1.264-1.716-2.902-1.567-4.611l7.384-84.983
				c2.405-27.672,21.746-50.886,48.129-57.767l14.192-3.701v71.502c0,4.31,3.494,7.804,7.804,7.804s7.804-3.494,7.804-7.804v-75.573
				l23.999-6.258v31.528c0,28.657,19.189,54.357,46.667,62.497c53.098,15.732,109.262,15.843,162.421,0.324l1.469-0.43
				c27.623-8.064,46.914-33.794,46.914-62.57v-31.35l23.999,6.258V496.39z M492.479,494.431c-1.159,1.264-2.743,1.96-4.458,1.96
				h-63.679v-153.02l14.192,3.701c26.383,6.88,45.724,30.095,48.129,57.767l7.384,84.983
				C494.195,491.53,493.638,493.167,492.479,494.431z"/>
			<path d="M256.001,268.997c19.75,0,37.183-11.876,44.411-30.254c1.44-3.663,0.972-7.799-1.253-11.064
				c-2.243-3.293-5.96-5.26-9.94-5.26h-66.437c-3.981,0-7.697,1.967-9.94,5.26c-2.225,3.265-2.692,7.4-1.252,11.064
				C218.817,257.122,236.249,268.997,256.001,268.997z M283.411,238.027c-5.755,9.48-16.009,15.361-27.412,15.361
				s-21.658-5.881-27.412-15.361H283.411z"/>
</svg>
