<svg width="370" height="58" viewBox="0 0 370 58" fill="none" xmlns="http://www.w3.org/2000/svg">
<path d="M354 56.2H370L353.5 1.79999H330.8L314.3 56.2H330.3L333.2 46.1H351.1L354 56.2ZM336.7 34L342.1 15.2H342.2L347.6 34H336.7Z" fill="#BF2B2F"/>
<path d="M79.8 57.2C96.2 57.2 104.1 54.3 105.3 39.5C105.6 36 105.6 32.4 105.6 29C105.6 25.7 105.5 22 105.3 18.5C104.2 3.69998 96.2 0.799988 79.8 0.799988C63.4 0.799988 55.5 3.69998 54.3 18.5C54 22 54 25.6 54 29C54 32.4 54.1 36 54.3 39.5C55.4 54.3 63.4 57.2 79.8 57.2ZM69.5 29C69.5 26 69.6 24.2 69.6 22.9C70 14.5 73.3 13.5 79.8 13.5C86.2 13.5 89.6 14.5 90 22.9C90.1 24.2 90.1 26 90.1 29C90.1 32 90 33.8 90 35.1C89.6 43.5 86.3 44.5 79.8 44.5C73.4 44.5 70 43.5 69.6 35.1C69.5 33.8 69.5 32 69.5 29Z" fill="#BF2B2F"/>
<path d="M0 1.79999V15.4H16.3V56.2H32.5V15.4H48.8V1.79999H0Z" fill="#BF2B2F"/>
<path d="M249.7 56.2V1.79999H234.2V56.2H249.7Z" fill="#BF2B2F"/>
<path d="M187.5 21.7V1.79999H172.2V56.2H187.5V35.2H205.4V56.2H220.7V1.79999H205.4V21.7H187.5Z" fill="#BF2B2F"/>
<path d="M300.5 27.8C307.3 26.1 309.3 22 309.3 16.1C309.3 4.09998 301.8 1.89996 291.1 1.89996H263.4V56.3H292.5C305.9 56.3 310.4 50.5 310.4 41.7C310.4 35.4 309 29.9 300.5 27.8ZM278.7 33.9H289.3C293.6 33.9 294.5 35.8 294.5 38.8C294.5 41.9 292.8 43.8 289.3 43.8H278.7V33.9ZM278.7 14.2H289.3C292.1 14.2 293.8 15.5 293.8 18.7C293.8 21.4 292.1 23.1 289.3 23.1H278.7V14.2Z" fill="#BF2B2F"/>
<path d="M114.5 38.4H129.1C129.1 41 129.5 42.8 130.7 43.8C132.2 44.9 133.5 45.3 137.8 45.3C142 45.3 146.5 45.3 146.5 40.2C146.5 36.2 144 35.2 139.2 35C127.5 34.4 123.3 34.1 119 30.8C116 28.6 114.5 24.3 114.5 18.5C114.5 8.69998 117.9 5.19999 122.9 2.79999C128 0.299988 148.1 0.299988 153.5 2.79999C160.3 5.89999 160.5 12.7 160.5 19H146C146 15.8 145.3 14.9 144.7 14.3C143.2 13 141 12.7 137.9 12.7C134.1 12.7 129.8 12.9 129.8 17.5C129.8 21 131.3 22.5 135.3 22.7C140.8 23 151.5 23.4 155.3 25.7C160.7 28.9 162.1 33.2 162.1 40.2C162.1 50.3 158.5 53.3 153.4 55.5C147.6 58.1 128.1 58.1 121.8 55.3C114.6 52 114.5 45.8 114.5 38.4Z" fill="#BF2B2F"/>
</svg>
